<?xml version="1.0" standalone="no"?>
<!DOCTYPE svg PUBLIC "-//W3C//DTD SVG 20010904//EN"
 "http://www.w3.org/TR/2001/REC-SVG-20010904/DTD/svg10.dtd">
<svg version="1.0" xmlns="http://www.w3.org/2000/svg"
 width="860.000000pt" height="666.000000pt" viewBox="0 0 860.000000 666.000000"
 preserveAspectRatio="xMidYMid meet">
<metadata>
Created by potrace 1.16, written by Peter Selinger 2001-2019
</metadata>
<g transform="translate(0.000000,666.000000) scale(0.100000,-0.100000)"
fill="#000000" stroke="none">
<path d="M5356 6618 c-132 -13 -253 -59 -371 -143 -59 -42 -144 -125 -178
-175 -16 -23 -19 -23 -40 -11 -56 36 -179 91 -252 114 -122 38 -229 51 -379
44 -180 -8 -293 -38 -455 -122 -318 -164 -548 -511 -568 -857 l-6 -86 -30 -6
c-57 -12 -195 -85 -269 -144 -302 -241 -395 -667 -221 -1018 75 -152 215 -292
367 -367 74 -37 202 -77 243 -77 22 0 23 -4 23 -65 0 -132 49 -292 132 -433
49 -85 207 -238 303 -294 101 -60 235 -104 358 -120 181 -23 385 18 541 107
l75 42 52 -35 c77 -51 202 -107 299 -134 73 -19 108 -23 250 -23 140 1 178 4
250 24 169 45 314 127 443 250 71 68 186 222 201 268 6 17 13 15 94 -24 135
-67 220 -86 392 -86 164 -1 257 18 386 78 355 164 569 541 524 927 -13 118
-55 254 -106 346 -36 65 -143 203 -173 225 -10 6 -32 24 -50 39 l-31 27 40 53
c97 129 150 292 150 466 0 136 -21 224 -82 352 -45 93 -61 115 -147 200 -154
154 -301 218 -516 227 -135 6 -222 -8 -327 -52 -97 -41 -91 -42 -111 14 -27
77 -109 192 -193 270 -163 153 -381 223 -618 199z m-126 -1097 c6 -12 10 -129
10 -311 0 -316 -1 -310 55 -296 l25 6 0 299 c0 293 0 299 20 294 10 -3 23 -10
28 -17 5 -6 14 -182 21 -390 l11 -380 -60 -62 -60 -62 0 -76 c0 -42 12 -185
26 -317 28 -268 27 -285 -30 -320 -42 -25 -106 -25 -139 1 -40 32 -48 76 -32
188 12 84 25 233 39 435 l4 58 -59 67 c-32 36 -59 75 -60 87 -2 50 2 329 8
534 l6 225 26 25 26 26 5 -305 5 -305 35 0 35 0 3 300 c2 294 4 314 34 315 4
0 12 -9 18 -19z m599 -5 c139 -71 178 -194 188 -587 l6 -225 -57 -63 c-47 -54
-56 -69 -56 -102 0 -21 23 -149 51 -285 56 -272 57 -297 8 -338 -34 -29 -98
-35 -142 -15 -53 24 -51 6 -55 852 -2 433 -1 787 3 787 3 0 27 -11 54 -24z
m-1263 -15 c85 -62 151 -229 161 -406 7 -121 -5 -156 -67 -206 -103 -82 -100
-76 -100 -186 0 -54 7 -197 15 -318 26 -386 21 -459 -36 -499 -45 -31 -113
-15 -142 33 -39 66 -46 241 -22 479 29 271 34 333 28 367 -4 24 -26 58 -70
107 -87 100 -108 145 -107 233 2 166 102 377 197 415 46 18 102 11 143 -19z"/>
<path d="M2053 3722 c-100 -36 -170 -101 -216 -199 -18 -39 -22 -66 -22 -148
0 -89 3 -106 28 -156 30 -62 103 -136 164 -168 22 -11 69 -25 105 -31 156 -27
310 50 386 195 25 45 27 60 27 160 0 95 -3 117 -23 157 -37 74 -96 134 -168
169 -85 42 -199 50 -281 21z"/>
<path d="M1242 3084 c-159 -79 -201 -288 -85 -423 78 -91 222 -120 331 -65
206 102 198 399 -13 495 -63 29 -168 26 -233 -7z"/>
<path d="M40 1395 l0 -155 225 0 225 0 0 -595 0 -595 170 0 170 0 0 595 0 595
225 0 225 0 0 155 0 155 -620 0 -620 0 0 -155z"/>
<path d="M2850 800 l0 -750 165 0 165 0 0 228 0 227 84 84 c46 46 88 81 92 78
5 -3 108 -143 229 -311 l220 -305 203 0 c111 -1 202 2 202 7 0 4 -140 195
-310 425 -171 230 -310 423 -310 428 0 5 133 147 295 316 162 169 295 311 295
315 0 4 -90 8 -200 8 l-200 0 -297 -320 -298 -321 -3 321 -2 320 -165 0 -165
0 0 -750z"/>
<path d="M6710 1345 l0 -145 -70 0 -70 0 0 -145 0 -145 69 0 70 0 3 -332 c3
-323 4 -334 26 -383 48 -105 129 -154 269 -163 92 -5 185 9 250 40 l43 20 0
139 0 138 -42 -19 c-47 -21 -147 -27 -178 -10 -34 18 -40 65 -40 321 l0 249
135 0 135 0 0 145 0 145 -135 0 -135 0 0 145 0 145 -165 0 -165 0 0 -145z"/>
<path d="M6262 1205 c-79 -24 -151 -87 -195 -170 -16 -29 -16 -28 -17 68 l0
97 -170 0 -170 0 0 -575 0 -575 170 0 170 0 0 263 c0 275 6 320 48 403 44 87
159 154 262 154 l50 0 0 175 0 175 -52 -1 c-29 0 -72 -6 -96 -14z"/>
<path d="M4661 1195 c-80 -15 -217 -61 -227 -76 -3 -5 13 -65 36 -133 l41
-124 74 24 c158 50 312 51 394 3 53 -31 88 -90 90 -150 l1 -25 -72 18 c-88 23
-274 27 -363 9 -133 -28 -218 -88 -267 -189 -31 -62 -33 -74 -33 -167 0 -89 3
-106 28 -157 35 -71 110 -140 185 -170 49 -19 76 -22 182 -22 144 0 198 15
288 84 l52 40 0 -55 0 -55 161 0 160 0 -3 403 c-3 378 -5 406 -25 464 -45 135
-132 222 -262 265 -85 27 -326 35 -440 13z m364 -667 c34 -13 40 -19 43 -48 8
-83 -35 -157 -113 -191 -177 -77 -350 22 -286 165 19 44 48 67 111 87 37 12
199 3 245 -13z"/>
<path d="M7855 1195 c-71 -13 -212 -58 -226 -72 -4 -4 10 -65 32 -134 l40
-127 74 24 c152 48 300 51 391 8 45 -22 85 -81 91 -137 l5 -44 -73 19 c-97 26
-287 28 -376 5 -172 -45 -258 -131 -285 -286 -28 -162 40 -306 177 -375 161
-80 394 -55 520 55 l35 31 0 -56 0 -56 160 0 160 0 0 381 c0 424 -5 468 -64
574 -56 101 -160 169 -300 196 -68 13 -277 10 -361 -6z m315 -655 c25 -6 58
-16 74 -22 27 -11 28 -13 22 -61 -4 -28 -13 -62 -21 -76 -63 -122 -269 -159
-362 -66 -29 29 -33 40 -33 84 0 44 5 56 33 87 17 19 50 41 72 49 47 17 151
19 215 5z"/>
<path d="M1430 776 c0 -394 1 -428 20 -488 54 -177 190 -266 389 -256 108 5
178 35 255 110 l56 54 0 -73 0 -73 165 0 165 0 0 575 0 575 -164 0 -165 0 -3
-357 c-3 -352 -3 -359 -26 -405 -28 -56 -61 -83 -126 -100 -94 -25 -199 34
-225 128 -7 24 -11 169 -11 387 l0 347 -165 0 -165 0 0 -424z"/>
</g>
</svg>
