<?xml version="1.0" standalone="no"?>
<!DOCTYPE svg PUBLIC "-//W3C//DTD SVG 20010904//EN"
 "http://www.w3.org/TR/2001/REC-SVG-20010904/DTD/svg10.dtd">
<svg version="1.0" xmlns="http://www.w3.org/2000/svg"
 width="1082.000000pt" height="940.000000pt" viewBox="0 0 1082.000000 940.000000"
 preserveAspectRatio="xMidYMid meet">
<metadata>
Created by potrace 1.16, written by Peter Selinger 2001-2019
</metadata>
<g transform="translate(0.000000,940.000000) scale(0.100000,-0.100000)"
fill="#000000" stroke="none">
<path d="M6910 9366 c-158 -34 -256 -89 -375 -210 l-91 -92 -96 48 c-52 27
-140 60 -194 75 -88 23 -117 26 -259 26 -132 0 -173 -3 -237 -21 -201 -55
-319 -123 -463 -267 -180 -180 -271 -369 -293 -610 l-7 -78 -52 -18 c-228 -77
-412 -277 -480 -519 -13 -49 -17 -100 -17 -205 0 -125 3 -149 27 -220 43 -127
100 -220 191 -310 114 -112 241 -182 377 -208 l59 -11 0 -47 c0 -26 6 -80 14
-121 52 -272 232 -495 488 -606 105 -45 193 -62 328 -62 167 0 307 37 428 114
l43 27 32 -25 c60 -46 196 -107 294 -132 168 -43 397 -31 545 27 132 52 242
123 335 216 59 59 155 191 168 232 5 17 12 15 81 -20 163 -81 401 -106 579
-60 291 76 512 291 601 586 36 122 39 317 6 439 -45 164 -141 323 -255 420
l-56 48 39 52 c91 120 134 257 134 426 0 137 -17 209 -76 330 -33 68 -59 102
-132 176 -78 79 -104 98 -186 137 -125 60 -230 82 -365 74 -101 -5 -203 -31
-276 -68 l-37 -18 -7 27 c-10 44 -72 148 -125 212 -82 97 -229 190 -362 226
-78 21 -250 26 -328 10z m-56 -1002 c3 -9 6 -137 6 -285 0 -293 -1 -289 55
-275 l25 6 0 275 c0 163 4 275 9 275 24 0 41 -34 41 -83 0 -29 5 -187 10 -351
l11 -299 -56 -53 -55 -53 0 -83 c0 -46 9 -164 20 -262 27 -242 26 -267 -6
-299 -34 -34 -81 -43 -127 -23 -46 19 -61 53 -53 126 2 30 12 120 20 200 8 80
17 182 20 228 l5 83 -56 61 -56 61 6 355 c6 348 7 355 28 378 13 13 26 24 30
24 4 0 7 -125 6 -277 l-2 -278 35 0 35 0 3 270 c1 149 4 276 7 283 6 17 32 15
39 -4z m592 -33 c94 -74 123 -184 131 -501 6 -229 5 -236 -61 -299 -28 -27
-36 -43 -36 -70 0 -20 21 -142 47 -272 43 -213 46 -238 34 -268 -18 -43 -62
-65 -119 -58 -24 3 -51 12 -60 21 -25 25 -31 178 -31 869 l-1 627 36 -15 c19
-8 46 -23 60 -34z m-1210 17 c44 -34 61 -57 93 -123 56 -116 79 -312 47 -389
-8 -20 -37 -51 -69 -75 -31 -22 -59 -46 -64 -53 -11 -17 -7 -156 13 -473 17
-278 14 -325 -26 -365 -44 -44 -112 -34 -144 21 -37 63 -40 293 -6 551 5 40
10 114 10 164 l0 91 -60 68 c-78 88 -100 135 -100 212 0 86 18 155 65 247 50
100 103 146 169 146 30 0 53 -7 72 -22z"/>
<path d="M3940 6711 c-94 -29 -186 -116 -216 -204 -24 -68 -23 -167 0 -237 27
-77 119 -170 196 -195 228 -77 450 79 450 315 0 194 -139 331 -333 329 -40 0
-83 -4 -97 -8z"/>
<path d="M3210 6131 c-138 -49 -207 -218 -143 -346 22 -43 72 -94 118 -118 54
-29 163 -30 219 -2 50 24 97 71 121 121 28 56 27 165 -2 219 -62 118 -190 170
-313 126z"/>
<path d="M1914 5479 c-66 -12 -144 -56 -144 -80 0 -31 78 -119 106 -119 32 0
35 -10 16 -47 l-17 -32 -55 35 c-72 45 -186 88 -289 109 -125 26 -335 17 -454
-19 -231 -69 -416 -216 -511 -407 -61 -120 -80 -211 -74 -352 6 -134 36 -235
103 -343 52 -83 175 -204 261 -256 65 -40 202 -98 230 -98 29 0 5 -15 -75 -49
-132 -56 -400 -229 -677 -437 -350 -264 -363 -332 -109 -593 103 -106 244
-232 389 -347 l39 -31 -25 -34 c-66 -87 -83 -163 -67 -288 23 -184 55 -235
189 -296 36 -16 66 -30 68 -31 6 -3 62 -1311 58 -1336 -9 -44 -53 -103 -116
-152 -96 -75 -129 -157 -77 -190 35 -23 194 -39 397 -40 l185 -1 53 30 c62 34
88 63 102 115 13 47 25 318 46 1030 9 311 18 566 19 568 1 1 35 -5 74 -15 61
-15 75 -22 87 -46 61 -117 277 -1212 291 -1472 3 -60 12 -122 19 -136 28 -56
127 -83 369 -99 219 -15 374 1 411 41 18 20 17 22 -5 65 -13 24 -62 78 -108
120 -116 106 -127 128 -158 316 -106 660 -215 1463 -230 1698 -21 335 -100
787 -194 1110 -28 94 -29 106 -16 127 20 30 83 65 193 107 214 82 448 222 568
340 81 81 123 154 131 232 11 100 -61 268 -245 577 -55 92 -108 189 -118 215
-90 247 -169 345 -353 441 -126 65 -210 85 -287 70z m195 -302 c28 -68 58
-100 129 -136 31 -16 69 -42 83 -58 44 -47 284 -706 277 -757 -2 -13 -25 -36
-58 -58 -93 -61 -621 -330 -659 -335 -26 -4 -61 4 -119 27 l-83 32 73 34 c201
97 349 260 415 459 24 71 27 96 27 215 0 122 -2 143 -28 215 -33 97 -69 160
-134 240 l-49 60 44 58 c24 31 48 57 52 57 5 0 18 -24 30 -53z m-1347 -2205
l-57 -293 -44 53 c-25 29 -100 109 -168 178 l-123 126 91 44 c50 25 150 77
223 117 72 39 132 71 132 70 1 -1 -23 -134 -54 -295z"/>
<path d="M2910 2250 l0 -140 210 0 210 0 0 -550 0 -550 155 0 155 0 0 550 0
550 210 0 210 0 0 140 0 140 -575 0 -575 0 0 -140z"/>
<path d="M5500 1700 l0 -690 155 0 155 0 0 213 0 212 78 77 77 77 210 -290
209 -289 189 0 c148 0 187 3 181 13 -5 6 -135 184 -291 395 -156 210 -283 385
-283 389 0 3 96 105 213 227 118 121 242 251 277 289 l62 67 -190 0 -191 0
-268 -290 -268 -289 -3 289 -2 290 -155 0 -155 0 0 -690z"/>
<path d="M9050 2205 l0 -135 -60 0 -60 0 0 -130 0 -130 59 0 59 0 4 -307 3
-308 29 -58 c52 -108 129 -142 303 -135 85 3 119 9 161 27 l52 23 0 124 c0 68
-3 124 -7 124 -5 0 -26 -7 -48 -15 -65 -23 -131 -19 -160 10 l-25 24 0 246 0
245 125 0 125 0 0 130 0 130 -125 0 -125 0 0 135 0 135 -155 0 -155 0 0 -135z"/>
<path d="M8637 2076 c-66 -24 -117 -65 -158 -128 l-39 -61 0 91 0 92 -155 0
-155 0 0 -530 0 -530 154 0 154 0 4 253 c5 280 12 322 71 399 43 56 124 98
205 105 l62 6 0 158 0 159 -52 0 c-29 -1 -70 -7 -91 -14z"/>
<path d="M7150 2064 c-67 -14 -179 -51 -193 -63 -5 -5 32 -131 67 -227 3 -8
30 -4 88 13 213 62 375 31 417 -80 10 -25 15 -77 8 -77 -1 0 -34 7 -72 15 -91
19 -264 19 -338 0 -118 -31 -191 -84 -234 -173 -24 -49 -27 -68 -27 -147 0
-73 4 -100 23 -142 27 -60 93 -126 155 -153 143 -64 340 -42 457 51 l39 31 0
-51 0 -51 150 0 150 0 0 333 c0 363 -7 431 -49 524 -50 106 -141 175 -269 202
-72 15 -293 12 -372 -5z m350 -611 l52 -17 -5 -49 c-4 -27 -15 -63 -25 -80
-45 -78 -182 -119 -278 -82 -110 42 -111 176 -1 225 55 25 184 27 257 3z"/>
<path d="M10090 2065 c-63 -13 -178 -51 -192 -64 -5 -5 55 -220 67 -239 1 -1
27 7 57 17 81 28 199 45 268 38 73 -6 128 -33 157 -76 23 -33 40 -97 30 -107
-3 -3 -37 1 -76 10 -81 19 -246 21 -323 5 -116 -24 -209 -92 -250 -183 -19
-42 -23 -68 -22 -146 0 -116 21 -168 96 -235 70 -63 141 -87 258 -89 116 -1
184 18 263 73 l57 40 0 -49 0 -50 150 0 150 0 0 323 c0 177 -5 352 -10 389
-27 188 -122 297 -297 343 -71 19 -291 19 -383 0z m339 -611 l53 -15 -4 -58
c-5 -72 -32 -111 -95 -142 -88 -43 -205 -35 -254 17 -32 34 -34 120 -4 154 52
58 190 78 304 44z"/>
<path d="M4190 1695 c0 -239 4 -393 11 -427 17 -78 52 -140 109 -191 66 -60
130 -81 240 -81 105 0 180 31 253 102 l47 46 0 -67 0 -67 155 0 155 0 0 530 0
530 -155 0 -155 0 0 -328 c0 -320 -1 -329 -22 -372 -27 -53 -60 -78 -117 -91
-83 -19 -156 18 -192 96 -17 36 -19 70 -19 368 l0 327 -155 0 -155 0 0 -375z"/>
</g>
</svg>
