<svg aria-hidden="true" style="position: absolute; width: 0; height: 0; overflow: hidden;" version="1.1" xmlns="http://www.w3.org/2000/svg" xmlns:xlink="http://www.w3.org/1999/xlink">
  <defs>
    <symbol id="tkr-delivery" viewBox="0 0 32 32">
      <title>delivery</title>
      <path fill-rule="evenodd" clip-rule="evenodd" d="M2.95331 1.54397L11.6541 2.06794C12.1817 2.09972 12.6069 2.73001 12.6362 3.52381L12.9251 11.3517C12.9577 12.236 12.4902 12.98 11.902 12.98H3.20433C2.65935 12.98 2.20972 12.3377 2.18108 11.5184L1.88911 3.16649C1.8574 2.25944 2.35048 1.50766 2.95331 1.54397ZM0.86586 3.24757C0.802441 1.43346 1.78861 -0.0700825 2.99427 0.0025242L11.6951 0.526499C12.7503 0.590051 13.6007 1.85063 13.6593 3.43824L13.9482 11.2662C13.9921 12.4551 13.5839 13.5173 12.9541 14.0858C15.091 18.3794 16.1275 21.4904 16.4926 23.0074H18.8807L21.6308 16.3154L18.5909 4.94737L16.5539 4.4867C16.297 4.42859 16.1096 4.09008 16.1179 3.6991C16.1263 3.30811 16.3277 2.98845 16.5867 2.95535L17.9368 2.7827L17.611 1.60351C17.5024 1.21018 17.6261 0.758695 17.8873 0.59509C18.0402 0.499377 18.2062 0.523397 18.3395 0.63857H21.7533C21.9613 0.63857 22.2062 0.715659 22.4266 0.936846C22.6571 1.16825 22.8317 1.52953 22.9055 2.00598C23.0325 2.82532 22.8531 3.90316 22.3329 5.29984C23.1886 5.86975 24.1374 6.70017 25.0074 7.82455C26.44 9.67624 27.6794 12.3555 27.8992 15.9955C27.9123 16.2113 27.8644 16.4254 27.7673 16.5855C27.6703 16.7455 27.533 16.8367 27.389 16.8367C26.019 16.8367 22.8807 18.2341 21.7317 24.0004L21.7195 24.0617H21.7378V26.8469C21.7378 27.2729 21.5085 27.6182 21.2255 27.6182H12.5691C12.3782 27.6182 12.2031 27.4584 12.1148 27.2035L11.0311 24.0738L11.0174 24.0076C9.87289 18.4619 6.74058 17.1026 5.35867 17.1026L5.34968 17.1025C4.76111 17.087 3.81495 17.2741 2.94133 17.8829C2.07581 18.4861 1.32067 19.4713 1.00232 21.0353C0.919411 21.4426 0.632889 21.6716 0.362354 21.5468C0.0918185 21.422 -0.0602843 20.9906 0.0226212 20.5833C0.450301 18.4822 1.46599 17.2111 2.51092 16.483C3.34432 15.9022 4.22105 15.6466 4.90483 15.5785C4.92721 15.3614 4.95354 15.1478 4.98363 14.9378V14.5227H3.20433C2.11437 14.5227 1.21512 13.2382 1.15783 11.5995L0.86586 3.24757ZM5.98087 15.294C5.96594 15.3999 5.95211 15.5069 5.93941 15.6151C7.71563 15.9339 10.6213 17.7159 11.8758 23.0074H15.3918C14.9904 21.5771 14.0601 18.9215 12.2743 15.294H5.98087ZM12.3515 24.55L12.8798 26.0756H20.7132V24.55L12.3515 24.55ZM20.8677 23.0074H20.0856L22.6385 16.7952C22.7243 16.5865 22.739 16.3289 22.6781 16.1012L19.432 3.96205C19.3848 3.78565 19.297 3.64457 19.1874 3.56138C19.1988 3.4289 19.1874 3.29237 19.1524 3.16563L18.8804 2.18125H21.7533C21.8016 2.18125 21.8384 2.20057 21.8582 2.22043C21.8678 2.23007 21.8918 2.25446 21.9076 2.35652C21.9456 2.60128 21.9211 3.23577 21.4577 4.49526H20.7287C20.4699 4.49526 20.2518 4.78572 20.2202 5.17235C20.1886 5.55899 20.3534 5.92043 20.6044 6.01491C21.5613 6.37505 23.0497 7.32745 24.3399 8.99505C25.5136 10.512 26.5059 12.5955 26.8117 15.3502C25.0277 15.6787 22.1184 17.5302 20.8677 23.0074ZM27.389 30.4573C29.3697 30.4573 30.9753 28.0399 30.9753 25.058C30.9753 22.076 29.3697 19.6586 27.389 19.6586C25.4083 19.6586 23.8027 22.076 23.8027 25.058C23.8027 28.0399 25.4083 30.4573 27.389 30.4573ZM27.389 32C29.9356 32 32 28.8919 32 25.058C32 21.224 29.9356 18.1159 27.389 18.1159C24.8424 18.1159 22.778 21.224 22.778 25.058C22.778 28.8919 24.8424 32 27.389 32ZM27.9013 25.058C27.9013 25.484 27.672 25.8293 27.389 25.8293C27.1061 25.8293 26.8767 25.484 26.8767 25.058C26.8767 24.632 27.1061 24.2866 27.389 24.2866C27.672 24.2866 27.9013 24.632 27.9013 25.058ZM28.926 25.058C28.926 26.336 28.2379 27.372 27.389 27.372C26.5401 27.372 25.852 26.336 25.852 25.058C25.852 23.78 26.5401 22.7439 27.389 22.7439C28.2379 22.7439 28.926 23.78 28.926 25.058ZM5.35868 30.4573C7.33936 30.4573 8.94502 28.0399 8.94502 25.058C8.94502 22.076 7.33936 19.6586 5.35868 19.6586C3.37801 19.6586 1.77235 22.076 1.77235 25.058C1.77235 28.0399 3.37801 30.4573 5.35868 30.4573ZM5.35868 32C7.90527 32 9.96968 28.8919 9.96968 25.058C9.96968 21.224 7.90527 18.1159 5.35868 18.1159C2.8121 18.1159 0.747688 21.224 0.747688 25.058C0.747688 28.8919 2.8121 32 5.35868 32ZM5.87102 25.058C5.87102 25.484 5.64164 25.8293 5.35868 25.8293C5.07573 25.8293 4.84635 25.484 4.84635 25.058C4.84635 24.632 5.07573 24.2866 5.35868 24.2866C5.64164 24.2866 5.87102 24.632 5.87102 25.058ZM6.89568 25.058C6.89568 26.336 6.20755 27.372 5.35868 27.372C4.50982 27.372 3.82169 26.336 3.82169 25.058C3.82169 23.78 4.50982 22.7439 5.35868 22.7439C6.20755 22.7439 6.89568 23.78 6.89568 25.058Z" />
    </symbol>
    <symbol id="tkr-message" viewBox="0 0 34 35">
      <title>message</title>
      <path fill-rule="evenodd" clip-rule="evenodd" d="M0.5 4C0.5 2.067 2.067 0.5 4 0.5H30C31.933 0.5 33.5 2.067 33.5 4V21.9671C33.5 23.9001 31.933 25.4671 30 25.4671H12.9775L4.7393 34.2656V25.4671H4C2.067 25.4671 0.5 23.9001 0.5 21.9671V4ZM4 1.5C2.61929 1.5 1.5 2.61929 1.5 4V21.9671C1.5 23.3478 2.61929 24.4671 4 24.4671H5.7393V31.7344L12.5439 24.4671H30C31.3807 24.4671 32.5 23.3478 32.5 21.9671V4C32.5 2.61929 31.3807 1.5 30 1.5H4ZM8.02135 8.24281C8.02135 7.96666 8.24521 7.74281 8.52135 7.74281H25.3419C25.618 7.74281 25.8419 7.96666 25.8419 8.24281C25.8419 8.51895 25.618 8.74281 25.3419 8.74281H8.52135C8.24521 8.74281 8.02135 8.51895 8.02135 8.24281ZM8.02135 13.2071C8.02135 12.931 8.24521 12.7071 8.52135 12.7071H25.3419C25.618 12.7071 25.8419 12.931 25.8419 13.2071C25.8419 13.4832 25.618 13.7071 25.3419 13.7071H8.52135C8.24521 13.7071 8.02135 13.4832 8.02135 13.2071ZM8.02135 17.6139C8.02135 17.3378 8.24521 17.1139 8.52135 17.1139H25.3419C25.618 17.1139 25.8419 17.3378 25.8419 17.6139C25.8419 17.8901 25.618 18.1139 25.3419 18.1139H8.52135C8.24521 18.1139 8.02135 17.8901 8.02135 17.6139Z" />
    </symbol>
    <symbol id="tkr-order" viewBox="0 0 32 32">
      <title>order</title>
      <path fill-rule="evenodd" clip-rule="evenodd" d="M0.481704 0.0794719C0.215666 0.0794719 0 0.309075 0 0.592306C0 0.875536 0.215666 1.10514 0.481704 1.10514H4.28251C5.29428 1.40691 7.3287 2.73773 7.47756 5.8219C7.47663 5.85206 7.47818 5.87862 7.47875 5.88835C7.4804 5.91668 7.48355 5.95157 7.48705 5.98682C7.49434 6.0603 7.5063 6.1666 7.52206 6.29983C7.55373 6.56753 7.60224 6.95654 7.6636 7.43772C7.78639 8.40064 7.96142 9.73858 8.15802 11.2267C8.55126 14.2031 9.03121 17.7832 9.35324 20.1721L9.35459 20.1821L9.3563 20.192C9.53371 21.219 10.0385 22.7223 10.9964 23.9201C11.6007 24.6756 12.3905 25.3131 13.3839 25.6246C12.2941 26.1461 11.5351 27.312 11.5351 28.6666C11.5351 30.5076 12.937 32 14.6662 32C16.3955 32 17.7973 30.5076 17.7973 28.6666C17.7973 27.4663 17.2014 26.4142 16.3074 25.8272C16.6034 25.8319 16.9598 25.8356 17.3643 25.8384C18.5763 25.8468 20.2296 25.8476 22.0093 25.8438C22.9609 25.8417 23.949 25.8383 24.9256 25.834C24.0373 26.4222 23.4459 27.4709 23.4459 28.6666C23.4459 30.5076 24.8478 32 26.577 32C28.3062 32 29.7081 30.5076 29.7081 28.6666C29.7081 27.4586 29.1046 26.4007 28.201 25.816C29.6012 25.8069 29.27 25.8254 30.1444 25.816C30.4105 25.8132 30.5217 25.5441 30.519 25.2609C30.5164 24.9777 30.4105 24.8153 30.1444 24.8181C28.0789 24.8402 25.5649 24.8104 22.0073 24.8181C20.2284 24.822 18.5784 24.8211 17.3706 24.8127C16.7662 24.8085 16.2749 24.8024 15.934 24.7941C15.838 24.7918 15.7553 24.7893 15.6862 24.7867L15.5538 24.7941L15.3178 24.7656C13.6896 24.9793 12.537 24.2642 11.73 23.2551C10.9105 22.2305 10.462 20.9132 10.3055 20.0162L10.1352 18.7515C12.7336 18.7411 16.3062 18.7296 19.3363 18.7261C20.988 18.7241 22.4777 18.7246 23.5605 18.7288C24.1021 18.7309 24.5406 18.7339 24.8463 18.7381C24.9995 18.7402 25.1171 18.7425 25.1968 18.745C25.2336 18.7462 25.2592 18.7474 25.2751 18.7483C25.309 18.7538 25.3434 18.7556 25.3778 18.7533C28.0833 18.577 29.2035 16.4255 29.4304 15.3152L31.9806 6.04444C32.0232 5.88944 31.9948 5.7221 31.9038 5.59284C31.8129 5.46357 31.67 5.38748 31.5183 5.38748V5.90031C31.5183 5.38748 31.5183 5.38748 31.5183 5.38748H8.41249C8.08673 1.95335 5.7054 0.431598 4.46452 0.0953202L4.40603 0.0794719H0.481704ZM8.50702 6.41315C8.53614 6.65124 8.57368 6.95023 8.61825 7.29974C8.74072 8.26014 8.91548 9.5961 9.11204 11.0838C9.39266 13.2079 9.71749 15.6397 9.99754 17.7264C12.6066 17.7158 16.2516 17.704 19.3353 17.7004C20.9873 17.6985 22.4789 17.6989 23.564 17.7031C24.1064 17.7052 24.5484 17.7083 24.8586 17.7125C25.0133 17.7146 25.1375 17.717 25.2257 17.7198C25.2692 17.7212 25.3078 17.7228 25.3383 17.7248L25.3617 17.7266C27.4938 17.566 28.3358 15.8769 28.4916 15.0843C28.4942 15.0711 28.4973 15.0581 28.5008 15.0452L30.8753 6.41315H8.50702ZM14.6662 30.9743C15.8634 30.9743 16.8339 29.9411 16.8339 28.6666C16.8339 27.392 15.8634 26.3588 14.6662 26.3588C13.4691 26.3588 12.4986 27.392 12.4986 28.6666C12.4986 29.9411 13.4691 30.9743 14.6662 30.9743ZM28.7447 28.6666C28.7447 29.9411 27.7742 30.9743 26.577 30.9743C25.3798 30.9743 24.4093 29.9411 24.4093 28.6666C24.4093 27.392 25.3798 26.3588 26.577 26.3588C27.7742 26.3588 28.7447 27.392 28.7447 28.6666Z" />
      <path fill-rule="evenodd" clip-rule="evenodd" d="M18.8622 11.0318C19.5802 11.0318 20.1622 10.4976 20.1622 9.83872C20.1622 9.17981 19.5802 8.64566 18.8622 8.64566C18.1442 8.64566 17.5622 9.17981 17.5622 9.83872C17.5622 10.4976 18.1442 11.0318 18.8622 11.0318ZM18.8622 11.0318C19.602 11.0318 20.3345 11.1655 21.018 11.4253C21.7015 11.6851 22.3225 12.0659 22.8456 12.546C23.3687 13.0261 23.7836 13.596 24.0667 14.2233C24.2385 14.6039 24.3597 15.0011 24.4285 15.4063L24.434 15.4393H24.4955C24.9742 15.4393 25.3622 15.7954 25.3622 16.2347V17.8255C25.3622 18.2647 24.9742 18.6208 24.4955 18.6208H13.2289C12.7502 18.6208 12.3622 18.2647 12.3622 17.8255V16.2347C12.3622 15.7954 12.7502 15.4393 13.2289 15.4393H13.2905L13.2959 15.4063C13.3647 15.0011 13.4859 14.6039 13.6577 14.2233C13.9408 13.596 14.3557 13.0261 14.8788 12.546C15.4019 12.0659 16.023 11.6851 16.7064 11.4253C17.3899 11.1655 18.1224 11.0318 18.8622 11.0318ZM18.8622 10.2364C19.1015 10.2364 19.2955 10.0584 19.2955 9.83872C19.2955 9.61909 19.1015 9.44104 18.8622 9.44104C18.6229 9.44104 18.4289 9.61909 18.4289 9.83872C18.4289 10.0584 18.6229 10.2364 18.8622 10.2364ZM18.8625 12.8044C18.8708 12.5849 19.0715 12.4132 19.3107 12.4209C19.7388 12.4347 20.3832 12.554 20.9735 12.8702C21.5743 13.192 22.1346 13.7285 22.3202 14.5646C22.3679 14.7798 22.2165 14.9898 21.982 15.0337C21.7475 15.0775 21.5187 14.9385 21.4709 14.7233C21.345 14.1558 20.9737 13.7913 20.5366 13.5571C20.0891 13.3174 19.5891 13.2257 19.2804 13.2158C19.0412 13.2081 18.8541 13.0239 18.8625 12.8044ZM23.5494 15.4063C23.4889 15.1059 23.3941 14.8113 23.266 14.5276C23.0265 13.9969 22.6754 13.5146 22.2327 13.1084C21.7901 12.7022 21.2646 12.38 20.6863 12.1601C20.108 11.9403 19.4882 11.8272 18.8622 11.8272C18.2362 11.8272 17.6164 11.9403 17.0381 12.1601C16.4598 12.38 15.9343 12.7022 15.4917 13.1084C15.049 13.5146 14.6979 13.9969 14.4584 14.5276C14.3303 14.8113 14.2355 15.1059 14.175 15.4063H23.5494ZM24.4955 16.2347V17.8255H13.2289V16.2347H24.4955Z" />
      <path fill-rule="evenodd" clip-rule="evenodd" d="M20.9923 4.23712C21.2685 4.23712 21.4923 4.46042 21.4923 4.73588V5.36901C21.4923 5.7884 21.2831 6.18031 20.9343 6.41443L20.5054 6.70232C20.3362 6.81589 20.2347 7.006 20.2347 7.20943L20.2347 8.01578C20.2347 8.29123 20.0109 8.51453 19.7347 8.51453C19.4586 8.51453 19.2347 8.29123 19.2347 8.01578L19.2347 7.20943C19.2347 6.67398 19.5018 6.17362 19.9471 5.87471L20.3761 5.58682C20.4487 5.53804 20.4923 5.45639 20.4923 5.36901V4.73588C20.4923 4.46042 20.7162 4.23712 20.9923 4.23712Z" />
      <path fill-rule="evenodd" clip-rule="evenodd" d="M19.7347 0C19.4586 0 19.2347 0.223302 19.2347 0.498758V0.628347C19.2347 0.956665 19.4377 1.25099 19.745 1.36841L19.9403 1.44301V1.54617C19.9403 1.82163 20.1641 2.04493 20.4403 2.04493C20.7164 2.04493 20.9403 1.82163 20.9403 1.54617V1.28867C20.9403 0.968369 20.7423 0.681231 20.4424 0.566672L20.2346 0.487269C20.2285 0.217119 20.007 0 19.7347 0Z" />
      <path fill-rule="evenodd" clip-rule="evenodd" d="M17.4547 1.7456C17.1786 1.7456 16.9547 1.9689 16.9547 2.24435V2.74177C16.9547 3.08415 17.1186 3.40595 17.3957 3.60788L17.6765 3.81241C17.776 3.88491 17.8348 4.00044 17.8348 4.12336V4.73588C17.8348 5.01134 18.0587 5.23464 18.3348 5.23464C18.611 5.23464 18.8348 5.01134 18.8348 4.73588V4.12336C18.8348 3.682 18.6236 3.26716 18.2663 3.00686L17.9855 2.80233C17.9662 2.78821 17.9547 2.76571 17.9547 2.74177V2.24435C17.9547 1.9689 17.7308 1.7456 17.4547 1.7456Z" />
    </symbol>
    <symbol id="tkr-menu" viewBox="0 0 25 32">
      <title>menu</title>
      <path fill-rule="evenodd" clip-rule="evenodd" d="M17.976 2.10615C17.7887 0.786562 16.5319 -0.171315 15.1417 0.0257289L0.428349 2.11121C0.182449 2.14606 0 2.35238 0 2.5956V31.5106C0 31.7809 0.223858 32 0.5 32H22.5C23.8807 32 25 30.9043 25 29.5528V4.55338C25 3.20182 23.8807 2.10615 22.5 2.10615H17.976ZM16.9594 2.10615H7.44226L15.285 0.994517C16.0704 0.883207 16.7847 1.38615 16.9594 2.10615ZM1 3.08505V31.0211H22.5C23.3284 31.0211 24 30.3637 24 29.5528V4.55338C24 3.74244 23.3284 3.08505 22.5 3.08505H1Z" />
      <path fill-rule="evenodd" clip-rule="evenodd" d="M6.08918 25.2437H5C4.44772 25.2437 4 25.682 4 26.2226V28.1352C4 28.6758 4.44772 29.1141 5 29.1141H20C20.5523 29.1141 21 28.6758 21 28.1352V26.2226C21 25.682 20.5523 25.2437 20 25.2437H18.8606C18.0959 23.0746 17.0313 21.579 15.802 20.667C14.5014 19.7021 13.0481 19.4153 11.6651 19.6486C9.05115 20.0895 6.75206 22.3661 6.08918 25.2437ZM7.11791 25.2437H17.7985C17.0928 23.3844 16.1729 22.1704 15.198 21.4471C14.1236 20.6501 12.9519 20.4248 11.8349 20.6132C9.73261 20.9678 7.764 22.8087 7.11791 25.2437ZM5 26.2226V28.1352H20V26.2226H5Z" />
      <path fill-rule="evenodd" clip-rule="evenodd" d="M12.5 18.6877C12.7908 18.6877 13 18.4644 13 18.2208C13 17.9772 12.7908 17.754 12.5 17.754C12.2092 17.754 12 17.9772 12 18.2208C12 18.4644 12.2092 18.6877 12.5 18.6877ZM12.5 19.6666C13.3284 19.6666 14 19.0193 14 18.2208C14 17.4224 13.3284 16.7751 12.5 16.7751C11.6716 16.7751 11 17.4224 11 18.2208C11 19.0193 11.6716 19.6666 12.5 19.6666Z" />
      <path fill-rule="evenodd" clip-rule="evenodd" d="M13.6194 10.4161C13.8909 10.3664 14.1521 10.5415 14.2029 10.8072L14.2713 11.1651C14.4589 12.1467 13.9009 13.1189 12.9468 13.4725C12.3313 13.7007 12.0542 14.4012 12.3522 14.9757L12.4437 15.152C12.5687 15.3931 12.4705 15.6877 12.2243 15.8101C11.9781 15.9325 11.6771 15.8363 11.5521 15.5953L11.4606 15.4189C10.8932 14.3252 11.4208 12.9915 12.5927 12.5571C13.0938 12.3713 13.3869 11.8607 13.2883 11.3451L13.2199 10.9872C13.1691 10.7215 13.348 10.4658 13.6194 10.4161Z" />
      <path fill-rule="evenodd" clip-rule="evenodd" d="M10.9437 8.37278C11.1174 8.58295 11.0841 8.89114 10.8694 9.06112L10.8086 9.10926C10.5099 9.34569 10.5507 9.80286 10.8867 9.98501C11.5719 10.3565 11.8636 11.1718 11.5649 11.8805L11.3328 12.431C11.2275 12.6809 10.9352 12.7999 10.6799 12.6968C10.4246 12.5937 10.3031 12.3076 10.4084 12.0577L10.6404 11.5071C10.7454 11.2582 10.6429 10.9718 10.4022 10.8413C9.44571 10.3228 9.32955 9.02123 10.1797 8.34814L10.2405 8.3C10.4552 8.13002 10.7701 8.1626 10.9437 8.37278Z" />
      <path fill-rule="evenodd" clip-rule="evenodd" d="M12.5374 5.11883C12.7946 5.02047 13.0846 5.14483 13.1851 5.39661L13.3652 5.84803C13.609 6.45875 13.3836 7.15315 12.8244 7.51412C12.6643 7.61751 12.5961 7.81401 12.6587 7.9915L12.8763 8.60775C12.9665 8.86324 12.828 9.14193 12.567 9.23023C12.306 9.31852 12.0213 9.18299 11.9311 8.9275L11.7136 8.31125C11.5017 7.71103 11.7323 7.04655 12.2739 6.69693C12.4392 6.59019 12.5059 6.38484 12.4338 6.20424L12.2536 5.75283C12.1532 5.50105 12.2802 5.2172 12.5374 5.11883Z" />
      <path fill-rule="evenodd" clip-rule="evenodd" d="M12.4495 21.9343C12.4621 21.6642 12.6958 21.4553 12.9717 21.4676C13.8072 21.5047 15.4584 22.1373 16.0571 24.2098C16.1323 24.4699 15.9778 24.7404 15.7121 24.8139C15.4464 24.8875 15.17 24.7363 15.0949 24.4762C14.6308 22.8699 13.3993 22.4665 12.9263 22.4454C12.6505 22.4332 12.437 22.2043 12.4495 21.9343Z" />
    </symbol>
    <symbol id="tkr-booking" viewBox="0 0 32 32">
      <title>booking</title>
      <path fill-rule="evenodd" clip-rule="evenodd" d="M1.01044 2.5C1.01044 1.67157 1.68903 1 2.5261 1H27.2819V29.5C27.2819 30.3284 26.6033 31 25.7663 31H2.5261C1.68903 31 1.01044 30.3284 1.01044 29.5V2.5ZM30.9714 24.2719L28.2924 7.03824V26H29.4734C30.4023 26 31.1126 25.1806 30.9714 24.2719ZM29.4734 27H28.2924V29.5C28.2924 30.8807 27.1614 32 25.7663 32H2.5261C1.13098 32 0 30.8807 0 29.5V2.5C0 1.11929 1.13098 0 2.5261 0H27.7871C28.0365 0 28.2486 0.180056 28.2865 0.423971L31.9701 24.1199C32.2055 25.6343 31.0216 27 29.4734 27ZM25.261 23C25.261 25.2091 23.4515 27 21.2193 27C18.9871 27 17.1775 25.2091 17.1775 23C17.1775 20.7909 18.9871 19 21.2193 19C23.4515 19 25.261 20.7909 25.261 23ZM26.2715 23C26.2715 25.7614 24.0095 28 21.2193 28C18.429 28 16.1671 25.7614 16.1671 23C16.1671 20.2386 18.429 18 21.2193 18C24.0095 18 26.2715 20.2386 26.2715 23ZM24.4593 21.0761C24.6028 21.3129 24.5253 21.62 24.286 21.7621L22.339 22.9182C22.341 22.9452 22.342 22.9725 22.342 23C22.342 23.1217 22.3222 23.2388 22.2857 23.3483L23.2606 24.3131C23.4579 24.5084 23.4579 24.825 23.2606 25.0202C23.0633 25.2155 22.7434 25.2155 22.5461 25.0202L21.5712 24.0554C21.4605 24.0916 21.3422 24.1111 21.2193 24.1111C20.5992 24.1111 20.0966 23.6136 20.0966 23C20.0966 22.3864 20.5992 21.8889 21.2193 21.8889C21.4399 21.8889 21.6457 21.9519 21.8192 22.0607L23.7661 20.9046C24.0054 20.7625 24.3157 20.8393 24.4593 21.0761ZM13.1357 5H5.05221V13H13.1357V5ZM5.05221 4C4.49416 4 4.04177 4.44772 4.04177 5V13C4.04177 13.5523 4.49416 14 5.05221 14H13.1357C13.6938 14 14.1462 13.5523 14.1462 13V5C14.1462 4.44772 13.6938 4 13.1357 4H5.05221ZM5.05221 19H13.1357V27H5.05221V19ZM4.04177 19C4.04177 18.4477 4.49416 18 5.05221 18H13.1357C13.6938 18 14.1462 18.4477 14.1462 19V27C14.1462 27.5523 13.6938 28 13.1357 28H5.05221C4.49416 28 4.04177 27.5523 4.04177 27V19ZM25.261 5H17.1775V13H25.261V5ZM17.1775 4C16.6195 4 16.1671 4.44772 16.1671 5V13C16.1671 13.5523 16.6195 14 17.1775 14H25.261C25.8191 14 26.2715 13.5523 26.2715 13V5C26.2715 4.44772 25.8191 4 25.261 4H17.1775ZM12.5772 6.22361C12.702 5.97662 12.6008 5.67628 12.3512 5.55279C12.1017 5.42929 11.7982 5.5294 11.6734 5.77639L9.96601 9.15592L8.44078 7.64645C8.24348 7.45118 7.92359 7.45118 7.72629 7.64645C7.52899 7.84171 7.52899 8.15829 7.72629 8.35355L9.74717 10.3536C9.86201 10.4672 10.025 10.5193 10.1853 10.4935C10.3456 10.4678 10.4837 10.3674 10.5563 10.2236L12.5772 6.22361Z" />
    </symbol>
    <symbol id="tkr-carry-out" viewBox="0 0 32 33">
      <title>carry-out</title>
      <path fill-rule="evenodd" clip-rule="evenodd" d="M18.1259 7.89878C17.9971 7.65552 17.6947 7.56231 17.4504 7.69059C17.2061 7.81887 17.1125 8.12006 17.2413 8.36333L17.3215 8.51477C17.3363 8.5427 17.3194 8.57687 17.2881 8.58212C16.5192 8.71117 16.157 9.60219 16.6191 10.2276L16.7169 10.3601C16.8806 10.5816 17.1935 10.629 17.416 10.466C17.6384 10.303 17.686 9.99131 17.5223 9.7698L17.4245 9.63739C17.4174 9.62771 17.4157 9.62088 17.4152 9.61591C17.4145 9.60961 17.4153 9.60135 17.4189 9.59251C17.4225 9.58367 17.4276 9.57718 17.4325 9.57314C17.4364 9.56994 17.4424 9.56619 17.4543 9.56419C18.1572 9.44621 18.5386 8.67818 18.2061 8.05023L18.1259 7.89878ZM18.3352 12.6308C18.5788 12.5014 18.8817 12.5932 19.0116 12.8358L19.1025 13.0054C19.67 14.0654 18.9932 15.3627 17.7961 15.5095C17.3747 15.5611 17.09 15.9634 17.1827 16.376L17.3197 16.9855C17.3801 17.2539 17.2105 17.5202 16.941 17.5803C16.6716 17.6403 16.4042 17.4715 16.3439 17.2031L16.2069 16.5936C15.985 15.6068 16.6661 14.6446 17.6739 14.521C18.1744 14.4596 18.4574 13.9173 18.2201 13.4741L18.1293 13.3045C17.9993 13.0618 18.0915 12.7602 18.3352 12.6308ZM17 22.572C17.8284 22.572 18.5 21.9032 18.5 21.0781C18.5 20.2531 17.8284 19.5842 17 19.5842C16.1716 19.5842 15.5 20.2531 15.5 21.0781C15.5 21.9032 16.1716 22.572 17 22.572ZM17 22.572C17.8536 22.572 18.6988 22.7394 19.4874 23.0648C20.2761 23.3901 20.9926 23.8669 21.5962 24.468C22.1998 25.0691 22.6786 25.7828 23.0052 26.5682C23.2034 27.0448 23.3433 27.5421 23.4226 28.0495L23.4289 28.0909H23.5C24.0523 28.0909 24.5 28.5368 24.5 29.0868V31.0786C24.5 31.6287 24.0523 32.0746 23.5 32.0746H10.5C9.94771 32.0746 9.5 31.6287 9.5 31.0786V29.0868C9.5 28.5368 9.94772 28.0909 10.5 28.0909H10.5711L10.5774 28.0495C10.6567 27.5421 10.7966 27.0448 10.9948 26.5682C11.3214 25.7828 11.8002 25.0691 12.4038 24.468C13.0074 23.8669 13.7239 23.3901 14.5126 23.0648C15.3012 22.7394 16.1464 22.572 17 22.572ZM17 21.5761C17.2761 21.5761 17.5 21.3531 17.5 21.0781C17.5 20.8031 17.2761 20.5801 17 20.5801C16.7239 20.5801 16.5 20.8031 16.5 21.0781C16.5 21.3531 16.7239 21.5761 17 21.5761ZM17.0003 24.7916C17.01 24.5167 17.2415 24.3017 17.5175 24.3114C18.0115 24.3286 18.755 24.478 19.4361 24.874C20.1294 25.277 20.7759 25.9486 20.9899 26.9956C21.045 27.2651 20.8704 27.528 20.5998 27.5829C20.3292 27.6378 20.0652 27.4638 20.0101 27.1943C19.8647 26.4837 19.4363 26.0272 18.932 25.7341C18.4156 25.4339 17.8388 25.3191 17.4825 25.3067C17.2065 25.297 16.9906 25.0664 17.0003 24.7916ZM22.4083 28.0495C22.3385 27.6733 22.2291 27.3045 22.0813 26.9493C21.8049 26.2847 21.3998 25.6809 20.8891 25.1722C20.3784 24.6636 19.772 24.2601 19.1048 23.9849C18.4375 23.7096 17.7223 23.5679 17 23.5679C16.2777 23.5679 15.5625 23.7096 14.8952 23.9849C14.228 24.2601 13.6216 24.6636 13.1109 25.1722C12.6002 25.6809 12.1951 26.2847 11.9187 26.9493C11.7709 27.3045 11.6615 27.6733 11.5917 28.0495H22.4083ZM23.5 29.0868V31.0786H10.5V29.0868H23.5ZM15.6678 10.6788C15.4238 10.55 15.1212 10.6426 14.9918 10.8856L14.8443 11.1628C14.4296 11.9419 14.9132 12.8953 15.7889 13.0252C15.9992 13.0564 16.1012 13.2986 15.9763 13.4699L15.7866 13.7299C15.6243 13.9524 15.6738 14.2638 15.8972 14.4255C16.1206 14.5871 16.4333 14.5378 16.5956 14.3153L16.7853 14.0553C17.3515 13.2791 16.889 12.1816 15.9363 12.0402C15.7431 12.0115 15.6364 11.8012 15.7279 11.6292L15.8754 11.352C16.0047 11.109 15.9118 10.8076 15.6678 10.6788Z" />
      <path fill-rule="evenodd" clip-rule="evenodd" d="M0 11.065C0 9.70399 1.11929 8.60068 2.5 8.60068H29.5C30.8807 8.60068 32 9.70399 32 11.065V29.7938C32 31.1548 30.8807 32.2581 29.5 32.2581H2.5C1.11929 32.2581 0 31.1548 0 29.7938V11.065ZM2.5 9.5864C1.67157 9.5864 1 10.2484 1 11.065V29.7938C1 30.6104 1.67157 31.2724 2.5 31.2724H29.5C30.3284 31.2724 31 30.6104 31 29.7938V11.065C31 10.2484 30.3284 9.5864 29.5 9.5864H2.5Z" />
      <path fill-rule="evenodd" clip-rule="evenodd" d="M10.5146 3.54597C9.22073 4.8568 8.52328 6.69525 8.99026 8.99688L8.99997 9.04473V14.515C8.99997 14.7872 8.77611 15.0079 8.49997 15.0079C8.22383 15.0079 7.99997 14.7872 7.99997 14.515V9.14164C7.48661 6.53649 8.28861 4.38762 9.79788 2.85857C11.3024 1.33434 13.4863 0.446338 15.7133 0.284923C17.9422 0.123373 20.2639 0.68634 22.037 2.12909C23.8224 3.58183 25 5.88502 25 9.09353V14.515C25 14.7872 24.7761 15.0079 24.5 15.0079C24.2238 15.0079 24 14.7872 24 14.515V9.09353C24 6.14126 22.9276 4.13189 21.4004 2.88928C19.861 1.63668 17.8078 1.12151 15.7867 1.268C13.7637 1.41462 11.8226 2.22083 10.5146 3.54597Z" />
      <path fill-rule="evenodd" clip-rule="evenodd" d="M8.5 15.5008C9.05228 15.5008 9.5 15.0594 9.5 14.515C9.5 13.9706 9.05228 13.5293 8.5 13.5293C7.94772 13.5293 7.5 13.9706 7.5 14.515C7.5 15.0594 7.94772 15.5008 8.5 15.5008ZM8.5 16.4865C9.60457 16.4865 10.5 15.6038 10.5 14.515C10.5 13.4262 9.60457 12.5436 8.5 12.5436C7.39543 12.5436 6.5 13.4262 6.5 14.515C6.5 15.6038 7.39543 16.4865 8.5 16.4865Z" />
      <path fill-rule="evenodd" clip-rule="evenodd" d="M24.5 15.5008C25.0523 15.5008 25.5 15.0594 25.5 14.515C25.5 13.9706 25.0523 13.5293 24.5 13.5293C23.9477 13.5293 23.5 13.9706 23.5 14.515C23.5 15.0594 23.9477 15.5008 24.5 15.5008ZM24.5 16.4865C25.6046 16.4865 26.5 15.6038 26.5 14.515C26.5 13.4262 25.6046 12.5436 24.5 12.5436C23.3954 12.5436 22.5 13.4262 22.5 14.515C22.5 15.6038 23.3954 16.4865 24.5 16.4865Z" />
    </symbol>
    <symbol id="tkr-review" viewBox="0 0 33 33">
      <title>review</title>
      <path fill-rule="evenodd" clip-rule="evenodd" d="M16.5 1C7.93959 1 1 7.93959 1 16.5C1 20.4313 2.46294 24.0197 4.87487 26.7524L4.12513 27.4142C1.55815 24.5058 0 20.6842 0 16.5C0 7.3873 7.3873 0 16.5 0C25.6127 0 33 7.3873 33 16.5C33 20.6842 31.4419 24.5058 28.8749 27.4142L28.1251 26.7524C30.5371 24.0197 32 20.4313 32 16.5C32 7.93959 25.0604 1 16.5 1Z" />
      <path d="M24.9049 10.7594C24.9348 10.6673 25.0652 10.6673 25.0951 10.7594L25.4266 11.7796C25.44 11.8208 25.4784 11.8487 25.5217 11.8487H26.5944C26.6912 11.8487 26.7315 11.9726 26.6531 12.0296L25.7853 12.6601C25.7503 12.6855 25.7356 12.7307 25.749 12.7719L26.0805 13.792C26.1104 13.8842 26.005 13.9608 25.9266 13.9038L25.0588 13.2733C25.0237 13.2479 24.9763 13.2479 24.9412 13.2733L24.0734 13.9038C23.9951 13.9608 23.8896 13.8842 23.9196 13.792L24.251 12.7719C24.2644 12.7307 24.2497 12.6855 24.2147 12.6601L23.3469 12.0296C23.2685 11.9726 23.3088 11.8487 23.4057 11.8487H24.4783C24.5217 11.8487 24.5601 11.8208 24.5734 11.7796L24.9049 10.7594Z" />
      <path d="M8.3219 10.7927C8.35184 10.7006 8.48218 10.7006 8.51212 10.7927L8.84359 11.8129C8.85697 11.8541 8.89537 11.882 8.93869 11.882H10.0114C10.1082 11.882 10.1485 12.006 10.0701 12.0629L9.20233 12.6934C9.16728 12.7189 9.15262 12.764 9.166 12.8052L9.49747 13.8254C9.52741 13.9175 9.42196 13.9941 9.34359 13.9372L8.47579 13.3067C8.44074 13.2812 8.39328 13.2812 8.35823 13.3067L7.49043 13.9372C7.41206 13.9941 7.30661 13.9175 7.33654 13.8254L7.66802 12.8052C7.6814 12.764 7.66674 12.7189 7.63169 12.6934L6.76389 12.0629C6.68551 12.006 6.72579 11.882 6.82267 11.882H7.89533C7.93865 11.882 7.97705 11.8541 7.99043 11.8129L8.3219 10.7927Z" />
      <path fill-rule="evenodd" clip-rule="evenodd" d="M16.5 4.3667C9.87258 4.3667 4.5 9.73928 4.5 16.3667C4.5 20.713 6.8103 24.5201 10.2722 26.6263L9.75247 27.4806C6.00478 25.2006 3.5 21.0764 3.5 16.3667C3.5 9.187 9.3203 3.3667 16.5 3.3667C23.6797 3.3667 29.5 9.187 29.5 16.3667C29.5 21.0764 26.9952 25.2006 23.2475 27.4806L22.7278 26.6263C26.1897 24.5201 28.5 20.713 28.5 16.3667C28.5 9.73928 23.1274 4.3667 16.5 4.3667Z" />
      <path fill-rule="evenodd" clip-rule="evenodd" d="M28.5 27.5H4.5V31.5H28.5V27.5ZM4.5 26.5C3.94772 26.5 3.5 26.9477 3.5 27.5V31.5C3.5 32.0523 3.94772 32.5 4.5 32.5H28.5C29.0523 32.5 29.5 32.0523 29.5 31.5V27.5C29.5 26.9477 29.0523 26.5 28.5 26.5H4.5Z" />
      <path fill-rule="evenodd" clip-rule="evenodd" d="M28.5 27.5V31.5H4.5V27.5H28.5ZM3.5 27.5C3.5 26.9477 3.94772 26.5 4.5 26.5H28.5C29.0523 26.5 29.5 26.9477 29.5 27.5V31.5C29.5 32.0523 29.0523 32.5 28.5 32.5H4.5C3.94772 32.5 3.5 32.0523 3.5 31.5V27.5Z" />
      <path fill-rule="evenodd" clip-rule="evenodd" d="M30.7306 28.5H29.5V27.5H31.5C31.6693 27.5 31.827 27.5856 31.9192 27.7275C32.0115 27.8695 32.0256 28.0484 31.9569 28.2031L31.3805 29.5L31.9569 30.7969C32.0256 30.9516 32.0115 31.1305 31.9192 31.2725C31.827 31.4144 31.6693 31.5 31.5 31.5H29.5V30.5H30.7306L30.3764 29.7031C30.319 29.5738 30.319 29.4262 30.3764 29.2969L30.7306 28.5Z" />
      <path fill-rule="evenodd" clip-rule="evenodd" d="M2.26938 28.5H3.5V27.5H1.5C1.33075 27.5 1.17298 27.5856 1.08075 27.7275C0.988525 27.8695 0.974354 28.0484 1.04309 28.2031L1.61951 29.5L1.04309 30.7969C0.974354 30.9516 0.988525 31.1305 1.08075 31.2725C1.17298 31.4144 1.33075 31.5 1.5 31.5H3.5V30.5H2.26938L2.62357 29.7031C2.68103 29.5738 2.68103 29.4262 2.62357 29.2969L2.26938 28.5Z" />
      <path d="M13.9707 17.6123H14.957V18.3496H13.9707V20H13.0625V18.3496H9.8252V17.8174L13.0088 12.8906H13.9707V17.6123ZM10.8506 17.6123H13.0625V14.126L12.9551 14.3213L10.8506 17.6123Z" />
      <path d="M15.8848 19.5264C15.8848 19.3701 15.9303 19.2399 16.0215 19.1357C16.1159 19.0316 16.2559 18.9795 16.4414 18.9795C16.627 18.9795 16.7669 19.0316 16.8613 19.1357C16.959 19.2399 17.0078 19.3701 17.0078 19.5264C17.0078 19.6761 16.959 19.8014 16.8613 19.9023C16.7669 20.0033 16.627 20.0537 16.4414 20.0537C16.2559 20.0537 16.1159 20.0033 16.0215 19.9023C15.9303 19.8014 15.8848 19.6761 15.8848 19.5264Z" />
      <path d="M21.8711 16.875C21.6823 17.0996 21.4561 17.2803 21.1924 17.417C20.932 17.5537 20.6455 17.6221 20.333 17.6221C19.9229 17.6221 19.5648 17.5212 19.2588 17.3193C18.9561 17.1175 18.7217 16.8343 18.5557 16.4697C18.3896 16.1019 18.3066 15.6966 18.3066 15.2539C18.3066 14.7786 18.3962 14.3506 18.5752 13.9697C18.7575 13.5889 19.0146 13.2975 19.3467 13.0957C19.6787 12.8939 20.0661 12.793 20.5088 12.793C21.2119 12.793 21.7653 13.0566 22.1689 13.584C22.5758 14.1081 22.7793 14.8242 22.7793 15.7324V15.9961C22.7793 17.3796 22.5059 18.3903 21.959 19.0283C21.4121 19.6631 20.5869 19.9886 19.4834 20.0049H19.3076V19.2432H19.498C20.2435 19.2301 20.8164 19.0365 21.2168 18.6621C21.6172 18.2845 21.8353 17.6888 21.8711 16.875ZM20.4795 16.875C20.7822 16.875 21.0605 16.7822 21.3145 16.5967C21.5716 16.4111 21.7588 16.1816 21.876 15.9082V15.5469C21.876 14.9544 21.7474 14.4727 21.4902 14.1016C21.2331 13.7305 20.9076 13.5449 20.5137 13.5449C20.1165 13.5449 19.7975 13.6979 19.5566 14.0039C19.3158 14.3066 19.1953 14.707 19.1953 15.2051C19.1953 15.6901 19.3109 16.0905 19.542 16.4062C19.7764 16.7188 20.0889 16.875 20.4795 16.875Z" />
    </symbol>
    <symbol id="tkr-edit" viewBox="0 0 34 33">
      <title>edit</title>
      <path fill-rule="evenodd" clip-rule="evenodd" d="M30.4338 7.20338C30.6655 6.98291 31.0294 6.98291 31.2611 7.20338L33.2855 9.12985C33.534 9.36633 33.534 9.76266 33.2855 9.99915L23.6156 19.2011C23.5496 19.2639 23.4702 19.3109 23.3834 19.3384L20.3419 20.3032C19.8705 20.4527 19.4308 19.9997 19.5943 19.5329L20.6049 16.6478C20.6363 16.558 20.6886 16.477 20.7575 16.4115L30.4338 7.20338ZM30.8474 8.19019L29.4033 9.5645L30.8474 10.9388L32.2916 9.5645L30.8474 8.19019ZM30.1221 11.629L28.678 10.2547L21.5168 17.0694L20.8027 19.1079L22.9931 18.4131L30.1221 11.629Z" />
      <path fill-rule="evenodd" clip-rule="evenodd" d="M30 27.5H2C1.44772 27.5 1 27.9477 1 28.5V30.5C1 31.0523 1.44772 31.5 2 31.5H30C30.5523 31.5 31 31.0523 31 30.5V28.5C31 27.9477 30.5523 27.5 30 27.5ZM2 26.5C0.895431 26.5 0 27.3954 0 28.5V30.5C0 31.6046 0.895431 32.5 2 32.5H30C31.1046 32.5 32 31.6046 32 30.5V28.5C32 27.3954 31.1046 26.5 30 26.5H2Z" />
      <path fill-rule="evenodd" clip-rule="evenodd" d="M7.99999 1C7.17157 1 6.49999 1.67157 6.49999 2.5V19.5C6.49999 23.7546 3.32535 26.5579 1.74281 27.4371L1.25717 26.5629C2.67463 25.7754 5.49999 23.2454 5.49999 19.5V2.5C5.49999 1.11929 6.61928 0 7.99999 0H31C32.3807 0 33.5 1.11929 33.5 2.5V4.5H32.5V2.5C32.5 1.67157 31.8284 1 31 1H7.99999ZM31.5262 23.5696C32.1302 22.1257 32.4212 20.5053 32.5015 19.4617L33.4985 19.5383C33.4121 20.6614 33.1032 22.391 32.4488 23.9554C31.8038 25.4975 30.7643 27.0159 29.1374 27.4808L28.8626 26.5192C30.0357 26.1841 30.9129 25.0359 31.5262 23.5696Z" />
      <path fill-rule="evenodd" clip-rule="evenodd" d="M9.5 6.5C9.5 6.22386 9.72386 6 10 6H29.5C29.7761 6 30 6.22386 30 6.5C30 6.77614 29.7761 7 29.5 7H10C9.72386 7 9.5 6.77614 9.5 6.5Z" />
      <path fill-rule="evenodd" clip-rule="evenodd" d="M9.5 13.5C9.5 13.2239 9.72386 13 10 13H19.75C20.0261 13 20.25 13.2239 20.25 13.5C20.25 13.7761 20.0261 14 19.75 14H10C9.72386 14 9.5 13.7761 9.5 13.5Z" />
      <path fill-rule="evenodd" clip-rule="evenodd" d="M8.5 21.5C8.5 21.2239 8.72386 21 9 21H15.5C15.7761 21 16 21.2239 16 21.5C16 21.7761 15.7761 22 15.5 22H9C8.72386 22 8.5 21.7761 8.5 21.5Z" />
    </symbol>
    <symbol id="tkr-information" viewBox="0 0 34 33">
      <title>information</title>
      <path fill-rule="evenodd" clip-rule="evenodd" d="M30 28H2C1.44772 28 1 28.4477 1 29V31C1 31.5523 1.44772 32 2 32H30C30.5523 32 31 31.5523 31 31V29C31 28.4477 30.5523 28 30 28ZM2 27C0.895431 27 0 27.8954 0 29V31C0 32.1046 0.895431 33 2 33H30C31.1046 33 32 32.1046 32 31V29C32 27.8954 31.1046 27 30 27H2Z" />
      <path fill-rule="evenodd" clip-rule="evenodd" d="M7.99999 1.5C7.17157 1.5 6.49999 2.17157 6.49999 3V20C6.49999 24.2546 3.32535 27.0579 1.74281 27.9371L1.25717 27.0629C2.67463 26.2754 5.49999 23.7454 5.49999 20V3C5.49999 1.61929 6.61928 0.5 7.99999 0.5H31C32.3807 0.5 33.5 1.61929 33.5 3V20.0192L33.4985 20.0383C33.4121 21.1614 33.1032 22.891 32.4488 24.4554C31.8038 25.9975 30.7643 27.5159 29.1374 27.9808L28.8626 27.0192C30.0357 26.6841 30.9129 25.5359 31.5262 24.0696C32.1265 22.6344 32.4177 21.0248 32.5 19.9806V3C32.5 2.17157 31.8284 1.5 31 1.5H7.99999Z" />
      <path fill-rule="evenodd" clip-rule="evenodd" d="M9.5 7C9.5 6.72386 9.72386 6.5 10 6.5H29.5C29.7761 6.5 30 6.72386 30 7C30 7.27614 29.7761 7.5 29.5 7.5H10C9.72386 7.5 9.5 7.27614 9.5 7Z" />
      <path fill-rule="evenodd" clip-rule="evenodd" d="M9.5 14C9.5 13.7239 9.72386 13.5 10 13.5H29.5C29.7761 13.5 30 13.7239 30 14C30 14.2761 29.7761 14.5 29.5 14.5H10C9.72386 14.5 9.5 14.2761 9.5 14Z" />
      <path fill-rule="evenodd" clip-rule="evenodd" d="M8.5 22C8.5 21.7239 8.72386 21.5 9 21.5H28.5C28.7761 21.5 29 21.7239 29 22C29 22.2761 28.7761 22.5 28.5 22.5H9C8.72386 22.5 8.5 22.2761 8.5 22Z" />
    </symbol>
    <symbol id="tkr-booking-alt" viewBox="0 0 33 33">
      <title>booking-alt</title>
      <path fill-rule="evenodd" clip-rule="evenodd" d="M25.8889 32C29.264 32 32 29.264 32 25.8889C32 22.5138 29.264 19.7778 25.8889 19.7778C22.5138 19.7778 19.7778 22.5138 19.7778 25.8889C19.7778 29.264 22.5138 32 25.8889 32ZM25.8889 33C29.8162 33 33 29.8162 33 25.8889C33 21.9615 29.8162 18.7778 25.8889 18.7778C21.9615 18.7778 18.7778 21.9615 18.7778 25.8889C18.7778 29.8162 21.9615 33 25.8889 33Z" />
      <path fill-rule="evenodd" clip-rule="evenodd" d="M25.8889 20.8174C26.165 20.8174 26.3889 21.0413 26.3889 21.3174V25.3889H29.4444C29.7206 25.3889 29.9444 25.6127 29.9444 25.8889C29.9444 26.165 29.7206 26.3889 29.4444 26.3889H25.3889V21.3174C25.3889 21.0413 25.6127 20.8174 25.8889 20.8174Z" />
      <path fill-rule="evenodd" clip-rule="evenodd" d="M2.53175 3C2.53175 1.61929 3.65104 0.5 5.03175 0.5H26.4286C27.8093 0.5 28.9286 1.61929 28.9286 3V16.746C28.9286 17.0222 28.7047 17.246 28.4286 17.246C28.1524 17.246 27.9286 17.0222 27.9286 16.746V3C27.9286 2.17157 27.257 1.5 26.4286 1.5H5.03175C4.20332 1.5 3.53175 2.17157 3.53175 3V28.4603C3.53175 29.2887 4.20333 29.9603 5.03175 29.9603H18.7778C19.0539 29.9603 19.2778 30.1842 19.2778 30.4603C19.2778 30.7365 19.0539 30.9603 18.7778 30.9603H5.03175C3.65104 30.9603 2.53175 29.841 2.53175 28.4603V3Z" />
      <path fill-rule="evenodd" clip-rule="evenodd" d="M0.5 6.58728C0.5 6.03061 0.951268 5.57935 1.50794 5.57935H4.55556C5.11222 5.57935 5.56349 6.03061 5.56349 6.58728C5.56349 7.14395 5.11222 7.59522 4.55556 7.59522H1.50794C0.951268 7.59522 0.5 7.14395 0.5 6.58728ZM1.50041 6.58437C1.50029 6.58464 1.5 6.58533 1.5 6.58728C1.5 6.58924 1.50029 6.58992 1.50041 6.59019L1.50042 6.59022C1.50067 6.59081 1.50124 6.59181 1.50232 6.59289C1.50341 6.59398 1.50441 6.59455 1.505 6.5948C1.50526 6.59491 1.50592 6.59522 1.50794 6.59522H4.55556C4.55757 6.59522 4.55824 6.59491 4.55849 6.5948C4.55908 6.59455 4.56009 6.59398 4.56117 6.59289C4.56225 6.59181 4.56283 6.59081 4.56307 6.59022L4.56308 6.59019C4.5632 6.58992 4.56349 6.58924 4.56349 6.58728C4.56349 6.58533 4.5632 6.58464 4.56308 6.58437L4.56307 6.58435C4.56283 6.58376 4.56225 6.58275 4.56117 6.58167C4.56009 6.58059 4.55908 6.58001 4.55849 6.57976L4.55847 6.57975C4.55819 6.57964 4.55751 6.57935 4.55556 6.57935H1.50794C1.50598 6.57935 1.5053 6.57964 1.50503 6.57975L1.505 6.57976C1.50441 6.58001 1.50341 6.58059 1.50232 6.58167C1.50124 6.58275 1.50067 6.58376 1.50042 6.58435L1.50041 6.58437Z" />
      <path fill-rule="evenodd" clip-rule="evenodd" d="M0.5 12.6826C0.5 12.1259 0.951268 11.6746 1.50794 11.6746H4.55556C5.11222 11.6746 5.56349 12.1259 5.56349 12.6826C5.56349 13.2392 5.11222 13.6905 4.55556 13.6905H1.50794C0.951268 13.6905 0.5 13.2392 0.5 12.6826ZM1.50041 12.6796C1.50029 12.6799 1.5 12.6806 1.5 12.6826C1.5 12.6845 1.50029 12.6852 1.50041 12.6855L1.50042 12.6855C1.50067 12.6861 1.50124 12.6871 1.50232 12.6882C1.50341 12.6893 1.50441 12.6898 1.505 12.6901C1.50526 12.6902 1.50592 12.6905 1.50794 12.6905H4.55556C4.55757 12.6905 4.55824 12.6902 4.55849 12.6901C4.55908 12.6898 4.56009 12.6893 4.56117 12.6882C4.56225 12.6871 4.56283 12.6861 4.56307 12.6855L4.56308 12.6855C4.5632 12.6852 4.56349 12.6845 4.56349 12.6826C4.56349 12.6806 4.5632 12.6799 4.56308 12.6796L4.56307 12.6796C4.56283 12.679 4.56225 12.678 4.56117 12.6769C4.56009 12.6759 4.55908 12.6753 4.55849 12.675L4.55847 12.675C4.55819 12.6749 4.55751 12.6746 4.55556 12.6746H1.50794C1.50598 12.6746 1.5053 12.6749 1.50503 12.675L1.505 12.675C1.50441 12.6753 1.50341 12.6759 1.50232 12.6769C1.50124 12.678 1.50067 12.679 1.50042 12.6796L1.50041 12.6796Z" />
      <path fill-rule="evenodd" clip-rule="evenodd" d="M0.5 18.7778C0.5 18.2211 0.951268 17.7698 1.50794 17.7698H4.55556C5.11222 17.7698 5.56349 18.2211 5.56349 18.7778C5.56349 19.3344 5.11222 19.7857 4.55556 19.7857H1.50794C0.951268 19.7857 0.5 19.3344 0.5 18.7778ZM1.50041 18.7749C1.50029 18.7751 1.5 18.7758 1.5 18.7778C1.5 18.7797 1.50029 18.7804 1.50041 18.7807L1.50042 18.7807C1.50067 18.7813 1.50124 18.7823 1.50232 18.7834C1.50341 18.7845 1.50441 18.785 1.505 18.7853C1.50526 18.7854 1.50592 18.7857 1.50794 18.7857H4.55556C4.55757 18.7857 4.55824 18.7854 4.55849 18.7853C4.55908 18.785 4.56009 18.7845 4.56117 18.7834C4.56225 18.7823 4.56283 18.7813 4.56307 18.7807L4.56308 18.7807C4.5632 18.7804 4.56349 18.7797 4.56349 18.7778C4.56349 18.7758 4.5632 18.7751 4.56308 18.7749L4.56307 18.7748C4.56283 18.7742 4.56225 18.7732 4.56117 18.7722C4.56009 18.7711 4.55908 18.7705 4.55849 18.7703L4.55847 18.7702C4.55819 18.7701 4.55751 18.7698 4.55556 18.7698H1.50794C1.50598 18.7698 1.5053 18.7701 1.50503 18.7702L1.505 18.7703C1.50441 18.7705 1.50341 18.7711 1.50232 18.7722C1.50124 18.7732 1.50067 18.7742 1.50042 18.7748L1.50041 18.7749Z" />
      <path fill-rule="evenodd" clip-rule="evenodd" d="M0.5 24.873C0.5 24.3163 0.951268 23.8651 1.50794 23.8651H4.55556C5.11222 23.8651 5.56349 24.3163 5.56349 24.873C5.56349 25.4297 5.11222 25.8809 4.55556 25.8809H1.50794C0.951268 25.8809 0.5 25.4297 0.5 24.873ZM1.50041 24.8701C1.50029 24.8703 1.5 24.871 1.5 24.873C1.5 24.8749 1.50029 24.8756 1.50041 24.8759L1.50042 24.8759C1.50067 24.8765 1.50124 24.8775 1.50232 24.8786C1.50341 24.8797 1.50441 24.8803 1.505 24.8805C1.50526 24.8806 1.50592 24.8809 1.50794 24.8809H4.55556C4.55757 24.8809 4.55824 24.8806 4.55849 24.8805C4.55908 24.8803 4.56009 24.8797 4.56117 24.8786C4.56225 24.8775 4.56283 24.8765 4.56307 24.8759L4.56308 24.8759C4.5632 24.8756 4.56349 24.8749 4.56349 24.873C4.56349 24.871 4.5632 24.8703 4.56308 24.8701L4.56307 24.8701C4.56283 24.8695 4.56225 24.8685 4.56117 24.8674C4.56009 24.8663 4.55908 24.8657 4.55849 24.8655L4.55847 24.8655C4.55819 24.8653 4.55751 24.8651 4.55556 24.8651H1.50794C1.50598 24.8651 1.5053 24.8653 1.50503 24.8655L1.505 24.8655C1.50441 24.8657 1.50341 24.8663 1.50232 24.8674C1.50124 24.8685 1.50067 24.8695 1.50042 24.8701L1.50041 24.8701Z" />
      <path fill-rule="evenodd" clip-rule="evenodd" d="M8.2977 6.12152C8.2977 5.84538 8.52156 5.62152 8.7977 5.62152H23.9061C24.1822 5.62152 24.4061 5.84538 24.4061 6.12152C24.4061 6.39766 24.1822 6.62152 23.9061 6.62152H8.7977C8.52156 6.62152 8.2977 6.39766 8.2977 6.12152Z" />
      <path fill-rule="evenodd" clip-rule="evenodd" d="M8.11905 14.2064C8.11905 13.9302 8.34291 13.7064 8.61905 13.7064H23.8571C24.1333 13.7064 24.3571 13.9302 24.3571 14.2064C24.3571 14.4825 24.1333 14.7064 23.8571 14.7064H8.61905C8.34291 14.7064 8.11905 14.4825 8.11905 14.2064Z" />
      <path fill-rule="evenodd" clip-rule="evenodd" d="M8.11905 10.1429C8.11905 9.86674 8.34291 9.64288 8.61905 9.64288H23.8571C24.1333 9.64288 24.3571 9.86674 24.3571 10.1429C24.3571 10.419 24.1333 10.6429 23.8571 10.6429H8.61905C8.34291 10.6429 8.11905 10.419 8.11905 10.1429Z" />
      <path fill-rule="evenodd" clip-rule="evenodd" d="M8.11905 18.2698C8.11905 17.9937 8.34291 17.7698 8.61905 17.7698H19.7937C20.0698 17.7698 20.2937 17.9937 20.2937 18.2698C20.2937 18.546 20.0698 18.7698 19.7937 18.7698H8.61905C8.34291 18.7698 8.11905 18.546 8.11905 18.2698Z" />
      <path fill-rule="evenodd" clip-rule="evenodd" d="M8.11905 22.3333C8.11905 22.0572 8.34291 21.8333 8.61905 21.8333H15.7302C16.0063 21.8333 16.2302 22.0572 16.2302 22.3333C16.2302 22.6095 16.0063 22.8333 15.7302 22.8333H8.61905C8.34291 22.8333 8.11905 22.6095 8.11905 22.3333Z" />
      <path fill-rule="evenodd" clip-rule="evenodd" d="M8.11905 26.3969C8.11905 26.1207 8.34291 25.8969 8.61905 25.8969H15.7302C16.0063 25.8969 16.2302 26.1207 16.2302 26.3969C16.2302 26.673 16.0063 26.8969 15.7302 26.8969H8.61905C8.34291 26.8969 8.11905 26.673 8.11905 26.3969Z" />
    </symbol>
    <symbol id="tkr-file-delete" viewBox="0 0 32 32">
      <title>file-delete</title>
      <path fill-rule="evenodd" clip-rule="evenodd" d="M28.6567 27.0769H1.91045C1.38289 27.0769 0.955224 27.5178 0.955224 28.0615V30.0308C0.955224 30.5746 1.38289 31.0154 1.91045 31.0154H28.6567C29.1843 31.0154 29.6119 30.5746 29.6119 30.0308V28.0615C29.6119 27.5178 29.1843 27.0769 28.6567 27.0769ZM1.91045 26.0923C0.855337 26.0923 0 26.974 0 28.0615V30.0308C0 31.1184 0.855337 32 1.91045 32H28.6567C29.7118 32 30.5672 31.1184 30.5672 30.0308V28.0615C30.5672 26.974 29.7118 26.0923 28.6567 26.0923H1.91045Z" />
      <path fill-rule="evenodd" clip-rule="evenodd" d="M7.64177 0.984615C6.85044 0.984615 6.20894 1.64586 6.20894 2.46154V19.2C6.20894 23.3892 3.17644 26.1493 1.66476 27.015L1.20087 26.1543C2.55486 25.3789 5.25371 22.8878 5.25371 19.2V2.46154C5.25371 1.10207 6.32288 0 7.64177 0H29.6119C30.9308 0 32 1.10207 32 2.46154V4.43077H31.0448V2.46154C31.0448 1.64586 30.4033 0.984615 29.6119 0.984615H7.64177ZM30.1146 23.2069C30.6915 21.7853 30.9695 20.1898 31.0462 19.1622L31.9986 19.2378C31.9161 20.3435 31.6209 22.0465 30.9958 23.5869C30.3797 25.1052 29.3868 26.6003 27.8327 27.058L27.5703 26.1112C28.6908 25.7812 29.5287 24.6507 30.1146 23.2069Z" />
      <path fill-rule="evenodd" clip-rule="evenodd" d="M9.07462 6.4C9.07462 6.12811 9.28845 5.90769 9.55223 5.90769H28.1791C28.4429 5.90769 28.6567 6.12811 28.6567 6.4C28.6567 6.67189 28.4429 6.89231 28.1791 6.89231H9.55223C9.28845 6.89231 9.07462 6.67189 9.07462 6.4Z" />
      <path fill-rule="evenodd" clip-rule="evenodd" d="M9.07462 13.2923C9.07462 13.0204 9.28845 12.8 9.55223 12.8H18.8657C19.1294 12.8 19.3433 13.0204 19.3433 13.2923C19.3433 13.5642 19.1294 13.7846 18.8657 13.7846H9.55223C9.28845 13.7846 9.07462 13.5642 9.07462 13.2923Z" />
      <path fill-rule="evenodd" clip-rule="evenodd" d="M8.11938 21.1692C8.11938 20.8973 8.33322 20.6769 8.597 20.6769H27.2239C27.4876 20.6769 27.7015 20.8973 27.7015 21.1692C27.7015 21.4411 27.4876 21.6615 27.2239 21.6615H8.597C8.33322 21.6615 8.11938 21.4411 8.11938 21.1692Z" />
      <path fill-rule="evenodd" clip-rule="evenodd" d="M26.0128 18.8589C28.7948 18.8589 31.0501 16.5043 31.0501 13.5998C31.0501 10.6954 28.7948 8.3408 26.0128 8.3408C23.2308 8.3408 20.9756 10.6954 20.9756 13.5998C20.9756 16.5043 23.2308 18.8589 26.0128 18.8589ZM26.0128 19.8151C29.3007 19.8151 31.966 17.0324 31.966 13.5998C31.966 10.1673 29.3007 7.38461 26.0128 7.38461C22.725 7.38461 20.0597 10.1673 20.0597 13.5998C20.0597 17.0324 22.725 19.8151 26.0128 19.8151Z" />
      <path fill-rule="evenodd" clip-rule="evenodd" d="M23.3994 10.8713C23.5782 10.6846 23.8682 10.6846 24.047 10.8713L28.6263 15.6522C28.8052 15.8389 28.8052 16.1416 28.6263 16.3283C28.4475 16.5151 28.1576 16.5151 27.9787 16.3283L23.3994 11.5474C23.2206 11.3607 23.2206 11.058 23.3994 10.8713Z" />
      <path fill-rule="evenodd" clip-rule="evenodd" d="M28.6263 10.8713C28.8052 11.058 28.8052 11.3607 28.6263 11.5474L24.047 16.3283C23.8682 16.5151 23.5782 16.5151 23.3994 16.3283C23.2206 16.1416 23.2206 15.8389 23.3994 15.6522L27.9787 10.8713C28.1576 10.6846 28.4475 10.6846 28.6263 10.8713Z" />
    </symbol>
    <symbol id="tkr-file-edit" viewBox="0 0 32 32">
      <title>file-edit</title>
      <path fill-rule="evenodd" clip-rule="evenodd" d="M29.0382 7.10105C29.2681 6.87542 29.6364 6.87542 29.8664 7.10105L31.7971 8.99582C32.0331 9.22737 32.0331 9.60735 31.7971 9.8389L22.564 18.8999C22.4991 18.9636 22.4203 19.0115 22.3338 19.0398L19.4359 19.9878C18.973 20.1392 18.5358 19.6974 18.6924 19.2364L19.6572 16.3959C19.6869 16.3084 19.7368 16.2291 19.8027 16.1643L29.0382 7.10105ZM29.4523 8.07455L28.0839 9.41736L29.4523 10.7602L30.8206 9.41736L29.4523 8.07455ZM28.7492 11.4501L27.3809 10.1073L20.5598 16.8012L19.8786 18.8069L21.9397 18.1327L28.7492 11.4501Z" />
      <path fill-rule="evenodd" clip-rule="evenodd" d="M28.5824 27.0769H1.97023C1.42616 27.0769 0.985113 27.5178 0.985113 28.0615V30.0308C0.985113 30.5746 1.42616 31.0154 1.97022 31.0154H28.5824C29.1265 31.0154 29.5676 30.5746 29.5676 30.0308V28.0615C29.5676 27.5178 29.1265 27.0769 28.5824 27.0769ZM1.97023 26.0923C0.882101 26.0923 0 26.974 0 28.0615V30.0308C0 31.1184 0.882098 32 1.97022 32H28.5824C29.6706 32 30.5527 31.1184 30.5527 30.0308V28.0615C30.5527 26.974 29.6706 26.0923 28.5824 26.0923H1.97023Z" />
      <path fill-rule="evenodd" clip-rule="evenodd" d="M7.69884 0.984615C6.88275 0.984615 6.22117 1.64586 6.22117 2.46154V19.2C6.22117 23.3813 3.19438 26.1424 1.6771 27.0117L1.18719 26.1575C2.53422 25.3858 5.23606 22.8956 5.23606 19.2V2.46154C5.23606 1.10207 6.33868 0 7.69884 0H29.5372C30.8974 0 32 1.10207 32 2.46154V4.43077H31.0149V2.46154C31.0149 1.64586 30.3533 0.984615 29.5372 0.984615H7.69884ZM30.0843 23.212C30.6614 21.7891 30.9395 20.1923 31.0162 19.1634L31.9986 19.2366C31.9162 20.3411 31.6215 22.0427 30.9972 23.5819C30.3831 25.0958 29.3907 26.5963 27.8276 27.0568L27.5491 26.1124C28.6593 25.7853 29.4969 24.6601 30.0843 23.212Z" />
      <path fill-rule="evenodd" clip-rule="evenodd" d="M9.05515 13.2923C9.05515 13.0204 9.27567 12.8 9.5477 12.8H18.8567C19.1288 12.8 19.3493 13.0204 19.3493 13.2923C19.3493 13.5642 19.1288 13.7846 18.8567 13.7846H9.5477C9.27567 13.7846 9.05515 13.5642 9.05515 13.2923Z" />
      <path fill-rule="evenodd" clip-rule="evenodd" d="M8.10037 21.1692C8.10037 20.8973 8.3209 20.6769 8.59293 20.6769H14.7989C15.071 20.6769 15.2915 20.8973 15.2915 21.1692C15.2915 21.4411 15.071 21.6615 14.7989 21.6615H8.59293C8.3209 21.6615 8.10037 21.4411 8.10037 21.1692Z" />
      <path fill-rule="evenodd" clip-rule="evenodd" d="M12.3817 5.41539H9.57804L9.57804 8.36923H12.3817V5.41539ZM9.57804 4.43077C9.03398 4.43077 8.59293 4.8716 8.59293 5.41539V8.36923C8.59293 8.91302 9.03398 9.35385 9.57804 9.35385H12.3817C12.9257 9.35385 13.3668 8.91302 13.3668 8.36923V5.41539C13.3668 4.8716 12.9257 4.43077 12.3817 4.43077H9.57804Z" />
      <path fill-rule="evenodd" clip-rule="evenodd" d="M24.7937 5.41539H21.9901L21.9901 8.36923H24.7937V5.41539ZM21.9901 4.43077C21.446 4.43077 21.005 4.8716 21.005 5.41539V8.36923C21.005 8.91302 21.446 9.35385 21.9901 9.35385H24.7937C25.3378 9.35385 25.7788 8.91302 25.7788 8.36923V5.41539C25.7788 4.8716 25.3378 4.43077 24.7937 4.43077H21.9901Z" />
    </symbol>
    <symbol id="tkr-file-edit-alt" viewBox="0 0 32 32">
      <title>file-edit-alt</title>
      <path fill-rule="evenodd" clip-rule="evenodd" d="M29.0382 7.10105C29.2681 6.87542 29.6364 6.87541 29.8664 7.10105L31.7971 8.99582C32.0331 9.22737 32.0331 9.60735 31.7971 9.8389L22.564 18.8999C22.4991 18.9636 22.4203 19.0115 22.3338 19.0398L19.4359 19.9878C18.973 20.1392 18.5358 19.6974 18.6924 19.2364L19.6572 16.3959C19.6869 16.3084 19.7368 16.2291 19.8027 16.1643L29.0382 7.10105ZM29.1762 7.80362C29.1763 7.8037 29.1761 7.80354 29.1762 7.80362V7.80362ZM29.4523 8.07455L30.8206 9.41736L29.4523 10.7602L28.0839 9.41736L29.4523 8.07455ZM27.3809 10.1073L20.5598 16.8012L19.8786 18.807L21.9397 18.1327L28.7492 11.4501L27.3809 10.1073Z" />
      <path fill-rule="evenodd" clip-rule="evenodd" d="M28.5824 27.0769H1.97023C1.42616 27.0769 0.985113 27.5178 0.985113 28.0615V30.0308C0.985113 30.5746 1.42616 31.0154 1.97022 31.0154H28.5824C29.1265 31.0154 29.5676 30.5746 29.5676 30.0308V28.0615C29.5676 27.5178 29.1265 27.0769 28.5824 27.0769ZM1.97023 26.0923C0.882101 26.0923 0 26.974 0 28.0615V30.0308C0 31.1184 0.882098 32 1.97022 32H28.5824C29.6706 32 30.5527 31.1184 30.5527 30.0308V28.0615C30.5527 26.974 29.6706 26.0923 28.5824 26.0923H1.97023Z" />
      <path fill-rule="evenodd" clip-rule="evenodd" d="M7.69884 0.984615C6.88275 0.984615 6.22117 1.64586 6.22117 2.46154V19.2C6.22117 23.3813 3.19438 26.1424 1.6771 27.0117L1.18719 26.1575C2.53422 25.3858 5.23606 22.8956 5.23606 19.2V2.46154C5.23606 1.10207 6.33868 0 7.69884 0H29.5372C30.8974 0 32 1.10207 32 2.46154V4.43077H31.0149V2.46154C31.0149 1.64586 30.3533 0.984615 29.5372 0.984615H7.69884ZM30.0843 23.212C30.6614 21.7891 30.9395 20.1923 31.0162 19.1634L31.9986 19.2366C31.9162 20.3411 31.6215 22.0427 30.9972 23.5819C30.3831 25.0958 29.3907 26.5963 27.8276 27.0568L27.5491 26.1124C28.6593 25.7853 29.4969 24.6601 30.0843 23.212Z" />
      <path fill-rule="evenodd" clip-rule="evenodd" d="M9.05515 6.4C9.05515 6.12811 9.27567 5.90769 9.5477 5.90769H28.1657C28.4378 5.90769 28.6583 6.12811 28.6583 6.4C28.6583 6.67189 28.4378 6.89231 28.1657 6.89231H9.5477C9.27567 6.89231 9.05515 6.67189 9.05515 6.4Z" />
      <path fill-rule="evenodd" clip-rule="evenodd" d="M9.05515 13.2923C9.05515 13.0204 9.27567 12.8 9.5477 12.8H18.8567C19.1288 12.8 19.3493 13.0204 19.3493 13.2923C19.3493 13.5642 19.1288 13.7846 18.8567 13.7846H9.5477C9.27567 13.7846 9.05515 13.5642 9.05515 13.2923Z" />
      <path fill-rule="evenodd" clip-rule="evenodd" d="M8.10037 21.1692C8.10037 20.8973 8.3209 20.6769 8.59293 20.6769H14.7989C15.071 20.6769 15.2915 20.8973 15.2915 21.1692C15.2915 21.4411 15.071 21.6615 14.7989 21.6615H8.59293C8.3209 21.6615 8.10037 21.4411 8.10037 21.1692Z" />
    </symbol>
    <symbol id="tkr-file-copy" viewBox="0 0 43 42">
      <title>file-copy</title>
      <path fill-rule="evenodd" clip-rule="evenodd" d="M30 36.5H2C1.44772 36.5 1 36.9477 1 37.5V39.5C1 40.0523 1.44772 40.5 2 40.5H30C30.5523 40.5 31 40.0523 31 39.5V37.5C31 36.9477 30.5523 36.5 30 36.5ZM2 35.5C0.895431 35.5 0 36.3954 0 37.5V39.5C0 40.6046 0.895431 41.5 2 41.5H30C31.1046 41.5 32 40.6046 32 39.5V37.5C32 36.3954 31.1046 35.5 30 35.5H2Z" />
      <path fill-rule="evenodd" clip-rule="evenodd" d="M7.99999 10C7.17157 10 6.49999 10.6716 6.49999 11.5V28.5C6.49999 32.7546 3.32535 35.5579 1.74281 36.4371L1.25717 35.5629C2.67463 34.7754 5.49999 32.2454 5.49999 28.5V11.5C5.49999 10.1193 6.61928 9 7.99999 9H31C32.3807 9 33.5 10.1193 33.5 11.5V28.5192L33.4985 28.5383C33.4121 29.6614 33.1032 31.391 32.4488 32.9554C31.8038 34.4975 30.7643 36.0159 29.1374 36.4808L28.8626 35.5192C30.0357 35.1841 30.9129 34.0359 31.5262 32.5696C32.1265 31.1344 32.4177 29.5248 32.5 28.4806V11.5C32.5 10.6716 31.8284 10 31 10H7.99999Z" />
      <path fill-rule="evenodd" clip-rule="evenodd" d="M9.5 15.5C9.5 15.2239 9.72386 15 10 15H29.5C29.7761 15 30 15.2239 30 15.5C30 15.7761 29.7761 16 29.5 16H10C9.72386 16 9.5 15.7761 9.5 15.5Z" />
      <path fill-rule="evenodd" clip-rule="evenodd" d="M9.5 22.5C9.5 22.2239 9.72386 22 10 22H29.5C29.7761 22 30 22.2239 30 22.5C30 22.7761 29.7761 23 29.5 23H10C9.72386 23 9.5 22.7761 9.5 22.5Z" />
      <path fill-rule="evenodd" clip-rule="evenodd" d="M8.5 30.5C8.5 30.2239 8.72386 30 9 30H28.5C28.7761 30 29 30.2239 29 30.5C29 30.7761 28.7761 31 28.5 31H9C8.72386 31 8.5 30.7761 8.5 30.5Z" />
      <path d="M39 31.5C39.5523 31.5 40 31.0523 40 30.5V28.5C40 27.9477 39.5523 27.5 39 27.5H35V26.5H39C40.1046 26.5 41 27.3954 41 28.5V30.5C41 31.6046 40.1046 32.5 39 32.5H35V31.5H39Z" />
      <path d="M17 1C16.1716 1 15.5 1.67157 15.5 2.5V7.5H14.5V2.5C14.5 1.11929 15.6193 0 17 0H40C41.3807 0 42.5 1.11929 42.5 2.5V19.5192L42.4985 19.5383C42.4121 20.6614 42.1032 22.391 41.4488 23.9554C40.8038 25.4975 39.7643 27.0159 38.1374 27.4808L37.8626 26.5192C39.0357 26.1841 39.9129 25.0359 40.5262 23.5696C41.1265 22.1344 41.4177 20.5248 41.5 19.4806V2.5C41.5 1.67157 40.8284 1 40 1H17Z" />
    </symbol>
    <symbol id="tkr-discount" viewBox="0 0 1218 1218">
      <title>discount</title>
      <path fill-rule="evenodd" clip-rule="evenodd" d="M455.978 1124.25C460.791 1124.25 465.603 1124.86 470.305 1126.13C485.295 1130.12 497.906 1140.24 505.042 1154.01C525.452 1193.23 565.223 1217.56 608.81 1217.56C652.452 1217.56 692.278 1193.23 712.689 1154.01C719.824 1140.29 732.381 1130.17 747.371 1126.13C762.471 1122.21 778.291 1124.53 791.4 1132.88C828.239 1156.22 875.366 1157.72 913.201 1136.09C950.869 1114.41 973.05 1073.42 971.225 1029.01C970.561 1013.52 976.424 998.477 987.377 987.58C998.273 976.684 1012.27 970.268 1028.81 971.43H1029.14C1076.98 971.43 1114.93 949.748 1135.73 913.574C1157.69 875.52 1156.53 828.893 1132.74 791.668C1124.44 778.67 1121.95 762.741 1125.88 747.751C1129.81 732.817 1139.88 720.206 1153.54 712.961C1192.87 692.274 1217.26 652.45 1217.26 609.086C1217.26 565.557 1192.92 525.788 1153.7 505.378C1139.99 498.243 1129.86 485.687 1125.83 470.698C1121.84 455.709 1124.28 439.779 1132.52 426.726C1156.25 389.28 1157.47 342.597 1135.67 304.875C1114.38 267.817 1077.48 245.139 1031.46 246.854C1016.58 246.854 1000.32 241.102 989.865 230.703C978.969 219.807 970.506 204.817 971.169 189.386C972.939 144.915 950.759 103.93 913.145 82.3033C875.2 60.4554 828.128 62.0041 791.345 85.5113C778.235 93.808 762.361 96.1311 747.315 92.204C732.325 88.1663 719.769 78.0443 712.633 64.3272C692.223 25.1116 652.397 0.719374 608.699 0.664062C565.278 0.664062 525.508 25.0563 505.042 64.3272C497.906 78.0443 485.35 88.2216 470.36 92.204C455.37 96.0757 439.329 93.808 426.33 85.456C389.879 62.2807 342.032 60.7873 304.53 82.3586C266.916 104.041 244.736 145.026 246.561 189.33C247.225 204.817 241.361 219.862 230.409 230.758C219.513 241.71 205.131 247.849 188.979 246.909C141.631 245.969 102.911 268.591 81.9475 304.986C60.2646 342.653 61.4815 389.225 85.1557 426.615C93.3975 439.668 95.8312 455.653 91.8486 470.587C87.8107 485.577 77.6883 498.132 63.9705 505.267C24.6978 525.733 0.359863 565.501 0.359863 609.086C0.359863 652.506 24.7532 692.33 64.0812 712.961C77.799 720.206 87.866 732.762 91.8486 747.751C95.7758 762.741 93.2868 778.67 84.9898 791.724C61.2602 828.893 60.0986 875.52 81.9475 913.298C102.635 949.25 141.686 971.596 183.946 971.596C198.383 970.877 216.913 976.795 227.865 987.691C238.762 998.587 247.169 1013.58 246.506 1029.06C244.68 1073.48 266.806 1114.41 304.419 1135.92C342.253 1157.77 389.934 1156.17 426.22 1132.99C435.18 1127.24 445.579 1124.25 455.978 1124.25ZM276.981 415.605C276.981 491.879 338.987 553.883 415.209 553.883C491.487 553.883 553.494 491.879 553.494 415.605C553.494 339.331 491.487 277.327 415.209 277.327C338.987 277.327 276.981 339.331 276.981 415.605ZM387.608 415.605C387.608 400.394 399.998 387.949 415.209 387.949C430.421 387.949 442.866 400.394 442.866 415.605C442.866 430.815 430.421 443.26 415.209 443.26C399.998 443.26 387.608 430.815 387.608 415.605ZM802.407 941.062C726.13 941.062 664.123 879.059 664.123 802.785C664.123 726.51 726.13 664.507 802.407 664.507C878.685 664.507 940.691 726.51 940.691 802.785C940.691 879.059 878.685 941.062 802.407 941.062ZM802.407 775.129C787.196 775.129 774.75 787.574 774.75 802.785C774.75 817.995 787.196 830.44 802.407 830.44C817.619 830.44 830.064 817.995 830.064 802.785C830.064 787.574 817.619 775.129 802.407 775.129ZM293.188 924.746C303.974 935.531 318.134 940.952 332.294 940.952C346.455 940.952 360.615 935.531 371.401 924.746L924.427 371.745C946.055 350.118 946.055 315.162 924.427 293.535C902.799 271.909 867.841 271.909 846.213 293.535L293.188 846.536C271.56 868.162 271.56 903.119 293.188 924.746Z" />
    </symbol>
    <symbol id="tkr-discount-alt" viewBox="0 0 562 563">
      <title>discount-alt</title>
      <path d="M117.313 234.638C52.8239 234.638 0.362305 182.175 0.362305 117.637C0.362305 53.0998 52.8239 0.636719 117.313 0.636719C181.848 0.636719 234.31 53.0998 234.31 117.637C234.31 182.175 181.848 234.638 117.313 234.638ZM117.313 94.2373C104.443 94.2373 93.96 104.767 93.96 117.637C93.96 130.508 104.443 141.038 117.313 141.038C130.182 141.038 140.712 130.508 140.712 117.637C140.712 104.767 130.182 94.2373 117.313 94.2373Z" />
      <path d="M444.906 562.244C380.371 562.244 327.909 509.781 327.909 445.243C327.909 380.705 380.371 328.242 444.906 328.242C509.442 328.242 561.904 380.705 561.904 445.243C561.904 509.781 509.442 562.244 444.906 562.244ZM444.906 421.843C432.037 421.843 421.507 432.373 421.507 445.243C421.507 458.113 432.037 468.643 444.906 468.643C457.776 468.643 468.306 458.113 468.306 445.243C468.306 432.373 457.776 421.843 444.906 421.843Z" />
      <path d="M47.1611 562.147C35.1806 562.147 23.2001 557.56 14.0744 548.434C-4.224 530.135 -4.224 500.557 14.0744 482.258L481.969 14.3492C500.268 -3.94973 529.845 -3.94973 548.143 14.3492C566.441 32.6481 566.441 62.2259 548.143 80.5248L80.2479 548.434C71.1222 557.56 59.1416 562.147 47.1611 562.147Z" />
    </symbol>
    <symbol id="tkr-menu-book" viewBox="0 0 266 318">
      <title>menu-book</title>
      <path d="M84.2983 236.211C83.6883 237.324 82.7383 237.656 81.8503 237.656C80.9623 237.656 80.0693 237.324 79.4583 236.211L73.0553 224.188V248.563C73.0553 250.069 71.2213 250.846 69.4403 250.846C67.6023 250.846 65.8213 250.069 65.8213 248.563V213.78C65.8213 211.109 67.6023 210.165 69.4403 210.165C72.0553 210.165 73.2253 210.722 75.0603 214.001L81.9073 226.469L88.7503 214C90.5883 210.721 91.8133 210.164 94.4313 210.164C96.2663 210.164 98.0473 211.108 98.0473 213.779V248.562C98.0473 250.068 96.2093 250.845 94.4313 250.845C92.5933 250.845 90.8133 250.068 90.8133 248.562V224.632L84.2983 236.211Z" />
      <path d="M118.188 227.64H126.647C128.094 227.64 128.929 229.03 128.929 230.534C128.929 231.812 128.203 233.317 126.647 233.317H118.188V244.502H133.935C135.386 244.502 136.221 246.005 136.221 247.731C136.221 249.234 135.494 250.848 133.935 250.848H114.125C112.511 250.848 110.95 250.068 110.95 248.565V212.447C110.95 210.944 112.508 210.164 114.125 210.164H133.935C135.495 210.164 136.221 211.778 136.221 213.281C136.221 215.007 135.386 216.51 133.935 216.51H118.188V227.64Z" />
      <path d="M165.883 248.565L153.915 226.192V248.565C153.915 250.071 152.08 250.848 150.296 250.848C148.461 250.848 146.681 250.071 146.681 248.565V212.447C146.681 210.89 148.461 210.167 150.296 210.167C152.914 210.167 153.973 210.724 155.698 214.003L166.439 234.763V212.392C166.439 210.833 168.216 210.164 170.054 210.164C171.834 210.164 173.669 210.833 173.669 212.392V248.566C173.669 250.069 171.834 250.849 170.054 250.849C168.328 250.848 166.826 250.291 165.883 248.565Z" />
      <path d="M205.896 212.389C205.896 210.83 207.673 210.164 209.511 210.164C211.292 210.164 213.127 210.83 213.127 212.389V238.437C213.127 247.729 207.229 251.181 199.771 251.181C192.256 251.181 186.416 247.729 186.416 238.437V212.389C186.416 210.83 188.193 210.164 190.031 210.164C191.812 210.164 193.647 210.83 193.647 212.389V238.437C193.647 242.778 195.932 244.835 199.771 244.835C203.611 244.835 205.893 242.777 205.893 238.437V212.389H205.896Z" />
      <path d="M220.2 261.867H193.746C191.149 261.867 189.045 263.971 189.045 266.564C189.045 269.165 191.149 271.266 193.746 271.266H220.2C222.8 271.266 224.901 269.164 224.901 266.564C224.901 263.972 222.8 261.867 220.2 261.867Z" />
      <path d="M171.881 261.867H64.8093C62.2153 261.867 60.1113 263.971 60.1113 266.564C60.1113 269.165 62.2153 271.266 64.8093 271.266H171.881C174.478 271.266 176.578 269.164 176.578 266.564C176.578 263.972 174.478 261.867 171.881 261.867Z" />
      <path d="M220.2 190.105H64.8093C62.2153 190.105 60.1113 192.209 60.1113 194.806C60.1113 197.4 62.2153 199.504 64.8093 199.504H220.2C222.8 199.504 224.901 197.4 224.901 194.806C224.901 192.208 222.8 190.105 220.2 190.105Z" />
      <path d="M217.588 131.841H213.025C211.263 99.4633 187.596 72.8153 156.619 66.5083L157.526 57.8383C157.822 55.0083 156.897 52.1733 154.996 50.0633C153.092 47.9503 150.368 46.7383 147.526 46.7383H137.486C134.638 46.7383 131.918 47.9543 130.013 50.0633C128.109 52.1763 127.187 55.0123 127.486 57.8383L128.393 66.5083C97.4164 72.8153 73.7474 99.4593 71.9874 131.838H67.4244C63.3894 131.838 60.1094 135.121 60.1094 139.154V148.851C60.1094 152.887 63.3894 156.167 67.4244 156.167H217.584C221.616 156.167 224.899 152.887 224.899 148.851V139.154C224.9 135.125 221.62 131.841 217.588 131.841ZM136.997 56.3543C137.127 56.2123 137.29 56.1393 137.486 56.1393H147.526C147.719 56.1393 147.882 56.2123 148.012 56.3543C148.142 56.5003 148.2 56.6713 148.178 56.8623L147.299 65.2573C145.715 65.1523 144.115 65.0913 142.507 65.0913C140.893 65.0913 139.297 65.1523 137.713 65.2573L136.833 56.8623C136.812 56.6713 136.87 56.4993 136.997 56.3543ZM215.502 146.769H69.5094V141.241H89.3164C91.9124 141.241 94.0164 139.136 94.0164 136.54C94.0164 133.946 91.9124 131.842 89.3164 131.842H81.4044C83.4124 99.8803 110.048 74.4933 142.506 74.4933C174.964 74.4933 201.603 99.8803 203.61 131.842H111.181C108.583 131.842 106.483 133.946 106.483 136.54C106.483 139.136 108.584 141.241 111.181 141.241H215.502V146.769Z" />
      <path d="M253.774 0.507812H31.2379C24.6409 0.507812 19.2719 5.87782 19.2719 12.4738V20.9618H14.8878C6.81985 20.9618 0.256836 27.5268 0.256836 35.5968C0.256836 43.6648 6.81985 50.2308 14.8878 50.2308H19.2719V70.3258H14.8878C6.81985 70.3258 0.256836 76.8888 0.256836 84.9598C0.256836 93.0288 6.81985 99.5918 14.8878 99.5918H19.2719V119.688H14.8878C6.81985 119.688 0.256836 126.252 0.256836 134.323C0.256836 142.391 6.81985 148.956 14.8878 148.956H19.2719V169.052H14.8878C6.81985 169.052 0.256836 175.616 0.256836 183.685C0.256836 191.752 6.81985 198.319 14.8878 198.319H19.2719V218.417H14.8878C6.81985 218.417 0.256836 224.98 0.256836 233.048C0.256836 241.116 6.81985 247.68 14.8878 247.68H19.2719V267.777H14.8878C6.81985 267.777 0.256836 274.342 0.256836 282.409C0.256836 290.477 6.81985 297.043 14.8878 297.043H19.2719V305.532C19.2719 312.131 24.6409 317.5 31.2379 317.5H253.774C260.37 317.5 265.742 312.131 265.742 305.532V12.4738C265.742 5.87782 260.37 0.507812 253.774 0.507812ZM19.2698 40.8328H14.8889C12.0019 40.8328 9.65384 38.4828 9.65384 35.5968C9.65384 32.7138 12.0029 30.3638 14.8889 30.3638H19.2698V40.8328ZM19.2698 90.1918H14.8889C12.0019 90.1918 9.65384 87.8428 9.65384 84.9588C9.65384 82.0728 12.0029 79.7278 14.8889 79.7278H19.2698V90.1918ZM19.2698 139.555H14.8889C12.0019 139.555 9.65384 137.206 9.65384 134.322C9.65384 131.436 12.0029 129.088 14.8889 129.088H19.2698V139.555ZM19.2698 188.917H14.8889C12.0019 188.917 9.65384 186.568 9.65384 183.683C9.65384 180.794 12.0029 178.45 14.8889 178.45H19.2698V188.917ZM19.2698 238.278H14.8889C12.0019 238.278 9.65384 235.931 9.65384 233.045C9.65384 230.157 12.0029 227.809 14.8889 227.809H19.2698V238.278ZM19.2698 287.641H14.8889C12.0019 287.641 9.65384 285.293 9.65384 282.406C9.65384 279.519 12.0029 277.172 14.8889 277.172H19.2698V287.641ZM256.344 305.525C256.344 306.942 255.192 308.096 253.775 308.096H31.2379C29.8219 308.096 28.6708 306.942 28.6708 305.525V12.4738C28.6708 11.0598 29.8219 9.90782 31.2379 9.90782H253.774C255.191 9.90782 256.343 11.0598 256.343 12.4738V305.525H256.344Z" />
    </symbol>
    <symbol id="tkr-dish-offer" viewBox="0 0 2996 2996">
      <title>dish-offer</title>
      <path fill-rule="evenodd" clip-rule="evenodd" d="M1389.17 1512.14C1381.13 1520.18 1368.09 1520.19 1360.04 1512.14C1328.96 1481.06 1328.96 1430.47 1360.04 1399.38C1375.07 1384.36 1375.07 1359.91 1360.04 1344.89C1352 1336.84 1352 1323.8 1360.04 1315.76C1368.09 1307.71 1381.13 1307.71 1389.17 1315.76C1420.26 1346.85 1420.26 1397.43 1389.17 1428.52C1374.15 1443.54 1374.15 1467.99 1389.17 1483.01C1397.22 1491.06 1397.22 1504.1 1389.17 1512.14ZM1483.63 1490.7C1464.5 1471.57 1453.97 1446.13 1453.97 1419.08C1453.97 1392.03 1464.5 1366.6 1483.63 1347.47C1507.06 1324.04 1507.06 1285.92 1483.63 1262.49C1475.59 1254.45 1475.59 1241.41 1483.63 1233.37C1491.67 1225.32 1504.71 1225.32 1512.76 1233.37C1552.25 1272.86 1552.25 1337.11 1512.76 1376.6C1489.33 1400.02 1489.33 1438.14 1512.76 1461.57C1520.8 1469.61 1520.8 1482.65 1512.76 1490.7C1504.72 1498.74 1491.67 1498.74 1483.63 1490.7ZM1636.35 1512.14C1628.3 1520.18 1615.26 1520.19 1607.22 1512.14C1576.13 1481.06 1576.13 1430.47 1607.22 1399.38C1622.24 1384.36 1622.24 1359.91 1607.22 1344.89C1599.17 1336.84 1599.17 1323.8 1607.22 1315.76C1615.26 1307.71 1628.3 1307.71 1636.35 1315.76C1667.43 1346.85 1667.43 1397.43 1636.35 1428.52C1621.32 1443.54 1621.32 1467.99 1636.35 1483.01C1644.39 1491.06 1644.39 1504.1 1636.35 1512.14ZM1923.2 1698.31C2061.64 1776.77 2152.99 1892.7 2187.39 2033.55C2201.81 2092.61 2205.05 2153.56 2197.03 2214.71C2172.97 2397.89 2052.58 2552.82 1890.33 2609.41C1879.58 2613.16 1867.84 2607.49 1864.09 2596.75C1860.35 2586.01 1866.02 2574.26 1876.76 2570.52C2024.45 2519 2134.13 2377.23 2156.18 2209.35C2163.55 2153.27 2160.58 2097.4 2147.37 2043.32C2115.74 1913.78 2031.2 1806.87 1902.89 1734.14C1789.55 1669.9 1644.7 1633.89 1495.03 1632.75C1359.64 1631.61 1209.16 1669.07 1092.23 1732.67C995.429 1785.33 873.129 1881.49 840.216 2040.58C832.702 2076.91 836.025 2105.86 850.098 2126.62C863.668 2146.64 887.907 2159.87 922.144 2165.93C963.507 2173.27 1006.08 2176.31 1045.93 2178.51C1145.57 2184 1226.99 2216.12 1287.92 2273.98C1341.98 2325.31 1388.85 2385.5 1427.57 2437.61C1508.2 2546.09 1646.06 2604.57 1787.35 2590.18C1798.65 2589.02 1808.77 2597.27 1809.93 2608.59C1811.08 2619.91 1802.83 2630.01 1791.52 2631.17C1638.07 2646.77 1484.56 2583.35 1394.51 2462.18C1356.83 2411.49 1311.34 2353.03 1259.55 2303.85C1205.91 2252.91 1133.28 2224.58 1043.66 2219.64C1002.53 2217.37 958.468 2214.21 914.957 2206.5C869.345 2198.41 836.05 2179.32 815.996 2149.73C795.445 2119.41 790.018 2079.88 799.875 2032.24C828.459 1894.07 922.748 1777.97 1072.54 1696.49C1197.16 1628.7 1351.33 1590.52 1495.34 1591.55C1651.91 1592.75 1803.86 1630.66 1923.2 1698.31ZM1109.37 1770.29C1021.28 1818.71 910.066 1906.36 880.564 2048.96C877.007 2066.16 874.75 2089.59 884.197 2103.53C893.024 2116.56 913.619 2122.62 929.343 2125.4C968.553 2132.35 1009.64 2135.28 1048.2 2137.41C1157.88 2143.45 1248.08 2179.36 1316.29 2244.14C1372.62 2297.63 1420.87 2359.55 1460.65 2413.07C1524.89 2499.51 1631.48 2551.12 1745.8 2551.13C1773.19 2551.13 1800.46 2548.09 1826.86 2542.08C1901.53 2525.11 1968.58 2483.22 2020.77 2420.93C2071.3 2360.62 2104.89 2283.59 2115.34 2204.02C2122.04 2153.01 2119.35 2102.24 2107.36 2053.13C2078.08 1933.21 2002.45 1837.96 1882.58 1770.02C1786.12 1715.34 1667.56 1682.63 1539.74 1675.41C1537.57 1675.29 1470.98 1674.94 1466.95 1675.43L1455.15 1675.51L1455.09 1675.51C1448.14 1675.55 1441.17 1675.59 1441.09 1675.6C1325.74 1683.31 1204.86 1717.81 1109.37 1770.29ZM1472.75 1807.42C1480.56 1799.61 1480.56 1786.95 1472.75 1779.14C1464.94 1771.33 1452.27 1771.33 1444.46 1779.14L1208.49 2015.11C1200.68 2022.92 1200.68 2035.59 1208.49 2043.4C1216.3 2051.21 1228.96 2051.21 1236.77 2043.4L1472.75 1807.42ZM1697.88 1837.51C1705.74 1829.76 1705.83 1817.09 1698.07 1809.23C1690.31 1801.37 1677.65 1801.28 1669.79 1809.04L1376.75 2098.06C1368.89 2105.82 1368.8 2118.48 1376.56 2126.35C1384.32 2134.21 1396.98 2134.3 1404.84 2126.54L1697.88 1837.51ZM1845.28 1945.23C1853.15 1937.47 1853.24 1924.81 1845.48 1916.94C1837.72 1909.08 1825.06 1908.99 1817.2 1916.75L1524.16 2205.77C1516.3 2213.53 1516.21 2226.19 1523.97 2234.06C1531.72 2241.92 1544.39 2242.01 1552.25 2234.25L1845.28 1945.23ZM1939.2 2234.36C1939.2 2296.28 1889.01 2346.47 1827.09 2346.47C1765.17 2346.47 1714.97 2296.28 1714.97 2234.36C1714.97 2172.44 1765.17 2122.24 1827.09 2122.24C1889.01 2122.24 1939.2 2172.44 1939.2 2234.36Z" />
      <path d="M47.3985 1544.18C21.5187 1544.18 0.599609 1523.26 0.599609 1497.38V935.687C0.599609 909.806 21.5187 888.887 47.3985 888.887C73.2783 888.887 94.1974 909.806 94.1974 935.687V1497.38C94.1974 1523.26 73.2783 1544.18 47.3985 1544.18Z" />
      <path d="M187.793 1403.6C161.913 1403.6 140.994 1382.68 140.994 1356.8V935.687C140.994 909.806 161.913 888.887 187.793 888.887C213.673 888.887 234.592 909.806 234.592 935.687V1356.8C234.592 1382.68 213.673 1403.6 187.793 1403.6Z" />
      <path d="M328.191 1403.6C302.312 1403.6 281.393 1382.68 281.393 1356.8V935.687C281.393 909.806 302.312 888.887 328.191 888.887C354.071 888.887 374.99 909.806 374.99 935.687V1356.8C374.99 1382.68 354.071 1403.6 328.191 1403.6Z" />
      <path d="M468.588 1544.18C442.708 1544.18 421.789 1523.26 421.789 1497.38V935.687C421.789 909.806 442.708 888.887 468.588 888.887C494.468 888.887 515.387 909.806 515.387 935.687V1497.38C515.387 1523.26 494.468 1544.18 468.588 1544.18Z" />
      <path d="M187.795 1684.59C84.5568 1684.59 0.599609 1600.63 0.599609 1497.39C0.599609 1471.51 21.5187 1450.59 47.3985 1450.59C73.2783 1450.59 94.1974 1471.51 94.1974 1497.39C94.1974 1549.01 136.176 1590.99 187.795 1590.99C213.675 1590.99 234.594 1611.91 234.594 1637.79C234.594 1663.67 213.675 1684.59 187.795 1684.59Z" />
      <path d="M328.191 1684.59C302.312 1684.59 281.393 1663.67 281.393 1637.79C281.393 1611.91 302.312 1590.99 328.191 1590.99C379.811 1590.99 421.789 1549.01 421.789 1497.39C421.789 1471.51 442.708 1450.59 468.588 1450.59C494.468 1450.59 515.387 1471.51 515.387 1497.39C515.387 1600.63 431.43 1684.59 328.191 1684.59Z" />
      <path d="M328.19 1684.59H187.793C161.913 1684.59 140.994 1663.67 140.994 1637.79C140.994 1611.91 161.913 1590.99 187.793 1590.99H328.19C354.069 1590.99 374.989 1611.91 374.989 1637.79C374.989 1663.67 354.069 1684.59 328.19 1684.59Z" />
      <path d="M468.588 1403.69H59.0977C33.2179 1403.69 12.2988 1382.77 12.2988 1356.89C12.2988 1331.01 33.2179 1310.09 59.0977 1310.09H468.588C494.468 1310.09 515.387 1331.01 515.387 1356.89C515.387 1382.77 494.468 1403.69 468.588 1403.69Z" />
      <path d="M187.793 2925.46C161.913 2925.46 140.994 2904.54 140.994 2878.66V1637.79C140.994 1611.91 161.913 1590.99 187.793 1590.99C213.673 1590.99 234.592 1611.91 234.592 1637.79V2878.66C234.592 2904.54 213.673 2925.46 187.793 2925.46Z" />
      <path d="M328.191 2925.46C302.312 2925.46 281.393 2904.54 281.393 2878.66V1637.79C281.393 1611.91 302.312 1590.99 328.191 1590.99C354.071 1590.99 374.99 1611.91 374.99 1637.79V2878.66C374.99 2904.54 354.071 2925.46 328.191 2925.46Z" />
      <path d="M257.991 2995.66C193.456 2995.66 140.994 2943.2 140.994 2878.66C140.994 2852.78 161.913 2831.86 187.793 2831.86C213.673 2831.86 234.592 2852.78 234.592 2878.66C234.592 2891.53 245.122 2902.06 257.991 2902.06C270.861 2902.06 281.391 2891.53 281.391 2878.66C281.391 2852.78 302.31 2831.86 328.19 2831.86C354.069 2831.86 374.989 2852.78 374.989 2878.66C374.989 2943.2 322.527 2995.66 257.991 2995.66Z" />
      <path d="M2668.23 2925.45C2642.35 2925.45 2621.43 2904.53 2621.43 2878.65V935.972C2621.43 910.092 2642.35 889.172 2668.23 889.172C2694.11 889.172 2715.03 910.092 2715.03 935.972V2878.65C2715.03 2904.53 2694.11 2925.45 2668.23 2925.45Z" />
      <path d="M2808.62 2925.46C2782.74 2925.46 2761.82 2904.54 2761.82 2878.66V2012.57C2761.82 1986.69 2782.74 1965.77 2808.62 1965.77C2834.5 1965.77 2855.42 1986.69 2855.42 2012.57V2878.66C2855.42 2904.54 2834.5 2925.46 2808.62 2925.46Z" />
      <path d="M2738.42 2995.66C2673.89 2995.66 2621.43 2943.2 2621.43 2878.66C2621.43 2852.78 2642.35 2831.86 2668.23 2831.86C2694.11 2831.86 2715.03 2852.78 2715.03 2878.66C2715.03 2891.53 2725.56 2902.06 2738.42 2902.06C2751.29 2902.06 2761.82 2891.53 2761.82 2878.66C2761.82 2852.78 2782.74 2831.86 2808.62 2831.86C2834.5 2831.86 2855.42 2852.78 2855.42 2878.66C2855.42 2943.2 2802.96 2995.66 2738.42 2995.66Z" />
      <path d="M2949.02 2059.37H2668.23C2642.35 2059.37 2621.43 2038.45 2621.43 2012.57C2621.43 1986.69 2642.35 1965.77 2668.23 1965.77H2949.02C2974.9 1965.77 2995.82 1986.69 2995.82 2012.57C2995.82 2038.45 2974.9 2059.37 2949.02 2059.37Z" />
      <path d="M2949.02 1262.97C2923.14 1262.97 2902.22 1242.05 2902.22 1216.17C2902.22 1087.1 2797.21 982.077 2668.09 982.077C2642.21 982.077 2621.29 961.157 2621.29 935.277C2621.29 909.396 2642.21 888.477 2668.09 888.477C2848.78 888.477 2995.82 1035.48 2995.82 1216.17C2995.82 1242.01 2974.9 1262.97 2949.02 1262.97Z" />
      <path d="M2949.02 2059.37C2923.14 2059.37 2902.22 2038.45 2902.22 2012.57V1216.17C2902.22 1190.29 2923.14 1169.37 2949.02 1169.37C2974.9 1169.37 2995.82 1190.29 2995.82 1216.17V2012.62C2995.82 2038.45 2974.9 2059.37 2949.02 2059.37Z" />
      <path d="M1498.21 2995C917.622 2995 445.234 2522.6 445.234 1942C445.234 1503.9 721.067 1107.08 1131.59 954.603C1155.73 945.664 1182.74 957.926 1191.72 982.215C1200.71 1006.46 1188.4 1033.37 1164.11 1042.35C790.142 1181.26 538.832 1542.84 538.832 1942C538.832 2471.03 969.195 2901.4 1498.21 2901.4C2027.22 2901.4 2457.59 2471.03 2457.59 1942C2457.59 1542.79 2206.28 1181.26 1832.26 1042.35C1807.97 1033.37 1795.66 1006.41 1804.65 982.215C1813.63 957.879 1840.73 945.57 1864.78 954.603C2275.35 1107.08 2551.18 1503.9 2551.18 1942C2551.18 2522.65 2078.8 2995 1498.21 2995Z" />
      <path fill-rule="evenodd" clip-rule="evenodd" d="M1345.44 1124.03C1350.26 1124.03 1355.07 1124.64 1359.77 1125.91C1374.76 1129.89 1387.37 1140.01 1394.51 1153.79C1414.92 1193 1454.69 1217.34 1498.28 1217.34C1541.92 1217.34 1581.74 1193 1602.16 1153.79C1609.29 1140.07 1621.85 1129.95 1636.84 1125.91C1651.94 1121.98 1667.76 1124.3 1680.87 1132.66C1717.71 1156 1764.83 1157.49 1802.67 1135.86C1840.34 1114.18 1862.52 1073.2 1860.69 1028.78C1860.03 1013.29 1865.89 998.25 1876.84 987.354C1887.74 976.458 1901.73 970.042 1918.27 971.203H1918.6C1966.45 971.203 2004.4 949.521 2025.19 913.348C2047.15 875.293 2045.99 828.666 2022.21 791.442C2013.91 778.444 2011.42 762.514 2015.35 747.525C2019.28 732.591 2029.34 719.98 2043 712.734C2082.33 692.048 2106.73 652.224 2106.73 608.86C2106.73 565.33 2082.39 525.561 2043.17 505.151C2029.45 498.016 2019.33 485.461 2015.29 470.471C2011.31 455.482 2013.74 439.553 2021.99 426.499C2045.72 389.053 2046.93 342.371 2025.14 304.649C2003.84 267.59 1966.95 244.913 1920.93 246.627C1906.05 246.627 1889.79 240.875 1879.33 230.476C1868.44 219.58 1859.97 204.591 1860.64 189.159C1862.41 144.689 1840.23 103.703 1802.61 82.0767C1764.67 60.2288 1717.59 61.7775 1680.81 85.2848C1667.7 93.5814 1651.83 95.9045 1636.78 91.9774C1621.79 87.9397 1609.24 77.8178 1602.1 64.1006C1581.69 24.885 1541.86 0.492811 1498.17 0.4375C1454.74 0.4375 1414.97 24.8297 1394.51 64.1006C1387.37 77.8178 1374.82 87.995 1359.83 91.9774C1344.84 95.8492 1328.8 93.5814 1315.8 85.2295C1279.34 62.0541 1231.5 60.5607 1194 82.132C1156.38 103.814 1134.2 144.8 1136.03 189.104C1136.69 204.591 1130.83 219.635 1119.88 230.532C1108.98 241.483 1094.6 247.623 1078.45 246.683C1031.1 245.742 992.378 268.365 971.414 304.759C949.731 342.426 950.948 388.998 974.622 426.388C982.864 439.442 985.297 455.427 981.315 470.361C977.277 485.35 967.155 497.906 953.437 505.041C914.164 525.506 889.826 565.275 889.826 608.86C889.826 652.279 914.22 692.103 953.548 712.734C967.265 719.98 977.332 732.536 981.315 747.525C985.242 762.514 982.753 778.444 974.456 791.497C950.727 828.666 949.565 875.294 971.414 913.071C992.101 949.023 1031.15 971.369 1073.41 971.369C1087.85 970.65 1106.38 976.568 1117.33 987.464C1128.23 998.361 1136.64 1013.35 1135.97 1028.84C1134.15 1073.25 1156.27 1114.18 1193.89 1135.7C1231.72 1157.55 1279.4 1155.94 1315.69 1132.77C1324.65 1127.01 1335.05 1124.03 1345.44 1124.03ZM1166.45 415.378C1166.45 491.652 1228.45 553.656 1304.68 553.656C1380.95 553.656 1442.96 491.652 1442.96 415.378C1442.96 339.104 1380.95 277.1 1304.68 277.1C1228.45 277.1 1166.45 339.104 1166.45 415.378ZM1277.07 415.378C1277.07 400.168 1289.46 387.723 1304.68 387.723C1319.89 387.723 1332.33 400.168 1332.33 415.378C1332.33 430.589 1319.89 443.034 1304.68 443.034C1289.46 443.034 1277.07 430.589 1277.07 415.378ZM1691.87 940.836C1615.6 940.836 1553.59 878.832 1553.59 802.558C1553.59 726.284 1615.6 664.28 1691.87 664.28C1768.15 664.28 1830.16 726.284 1830.16 802.558C1830.16 878.832 1768.15 940.836 1691.87 940.836ZM1691.87 774.902C1676.66 774.902 1664.22 787.347 1664.22 802.558C1664.22 817.768 1676.66 830.214 1691.87 830.214C1707.08 830.214 1719.53 817.768 1719.53 802.558C1719.53 787.347 1707.08 774.902 1691.87 774.902ZM1182.65 924.519C1193.44 935.305 1207.6 940.725 1221.76 940.725C1235.92 940.725 1250.08 935.305 1260.87 924.519L1813.89 371.519C1835.52 349.892 1835.52 314.935 1813.89 293.309C1792.27 271.682 1757.31 271.682 1735.68 293.309L1182.65 846.309C1161.03 867.936 1161.03 902.893 1182.65 924.519Z" />
    </symbol>
  </defs>
</svg>
